<svg width="118" height="19" viewBox="0 0 118 19" fill="none" xmlns="http://www.w3.org/2000/svg">
<path d="M5.019 15.21C4.30967 15.21 3.67033 15.0863 3.101 14.839C2.53167 14.5917 2.04633 14.2393 1.645 13.782C1.24833 13.3247 0.945 12.774 0.735 12.13C0.525 11.4813 0.42 10.758 0.42 9.96C0.42 8.90533 0.602 7.986 0.966 7.202C1.33467 6.41333 1.862 5.802 2.548 5.368C3.234 4.934 4.05767 4.717 5.019 4.717C6.09233 4.717 6.965 4.969 7.637 5.473C8.31367 5.97233 8.785 6.64433 9.051 7.489L8.015 7.741C7.79567 7.125 7.434 6.63267 6.93 6.264C6.43067 5.89533 5.80767 5.711 5.061 5.711C4.27233 5.70633 3.61667 5.88367 3.094 6.243C2.57133 6.59767 2.177 7.097 1.911 7.741C1.64967 8.38033 1.51667 9.12 1.512 9.96C1.50733 10.8 1.63567 11.5397 1.897 12.179C2.163 12.8137 2.55967 13.313 3.087 13.677C3.61433 14.0363 4.27233 14.2183 5.061 14.223C5.78433 14.223 6.38167 14.083 6.853 13.803C7.32433 13.523 7.68133 13.1217 7.924 12.599C8.17133 12.0763 8.31133 11.458 8.344 10.744H6.02V9.862H9.422C9.436 9.96933 9.443 10.0837 9.443 10.205C9.44767 10.3217 9.45 10.4057 9.45 10.457C9.45 11.367 9.28667 12.1813 8.96 12.9C8.63333 13.614 8.141 14.1787 7.483 14.594C6.82967 15.0047 6.00833 15.21 5.019 15.21ZM14.2461 15.21C13.5508 15.21 12.9628 15.035 12.4821 14.685C12.0014 14.3303 11.6374 13.852 11.3901 13.25C11.1428 12.6433 11.0191 11.9643 11.0191 11.213C11.0191 10.4477 11.1428 9.76633 11.3901 9.169C11.6421 8.567 12.0108 8.09333 12.4961 7.748C12.9814 7.40267 13.5788 7.23 14.2881 7.23C14.9788 7.23 15.5714 7.405 16.0661 7.755C16.5608 8.105 16.9388 8.581 17.2001 9.183C17.4661 9.785 17.5991 10.4617 17.5991 11.213C17.5991 11.969 17.4661 12.648 17.2001 13.25C16.9341 13.852 16.5514 14.3303 16.0521 14.685C15.5528 15.035 14.9508 15.21 14.2461 15.21ZM10.8441 15V4.92H11.8801V9.309H11.7681V15H10.8441ZM14.1411 14.251C14.6684 14.251 15.1071 14.118 15.4571 13.852C15.8071 13.586 16.0684 13.2243 16.2411 12.767C16.4184 12.305 16.5071 11.787 16.5071 11.213C16.5071 10.6437 16.4208 10.1303 16.2481 9.673C16.0754 9.21567 15.8118 8.854 15.4571 8.588C15.1071 8.322 14.6614 8.189 14.1201 8.189C13.5928 8.189 13.1541 8.31733 12.8041 8.574C12.4588 8.83067 12.1998 9.18767 12.0271 9.645C11.8544 10.0977 11.7681 10.6203 11.7681 11.213C11.7681 11.7963 11.8544 12.319 12.0271 12.781C12.1998 13.2383 12.4611 13.5977 12.8111 13.859C13.1611 14.1203 13.6044 14.251 14.1411 14.251ZM21.2993 15.21C20.7299 15.21 20.2516 15.1073 19.8643 14.902C19.4816 14.6967 19.1946 14.4237 19.0033 14.083C18.8119 13.7423 18.7163 13.3713 18.7163 12.97C18.7163 12.5593 18.7979 12.2093 18.9613 11.92C19.1293 11.626 19.3556 11.3857 19.6403 11.199C19.9296 11.0123 20.2633 10.87 20.6413 10.772C21.0239 10.6787 21.4463 10.597 21.9083 10.527C22.3749 10.4523 22.8299 10.3893 23.2733 10.338C23.7213 10.282 24.1133 10.2283 24.4493 10.177L24.0853 10.401C24.0993 9.65433 23.9546 9.10133 23.6513 8.742C23.3479 8.38267 22.8206 8.203 22.0693 8.203C21.5513 8.203 21.1126 8.31967 20.7533 8.553C20.3986 8.78633 20.1489 9.155 20.0042 9.659L19.0033 9.365C19.1759 8.68833 19.5236 8.16333 20.0463 7.79C20.5689 7.41667 21.2479 7.23 22.0833 7.23C22.7739 7.23 23.3596 7.36067 23.8403 7.622C24.3256 7.87867 24.6686 8.252 24.8693 8.742C24.9626 8.96133 25.0233 9.20633 25.0513 9.477C25.0793 9.74767 25.0933 10.023 25.0933 10.303V15H24.1763V13.103L24.4423 13.215C24.1856 13.8637 23.7866 14.3583 23.2453 14.699C22.7039 15.0397 22.0553 15.21 21.2993 15.21ZM21.4183 14.321C21.8989 14.321 22.3189 14.2347 22.6783 14.062C23.0376 13.8893 23.3269 13.6537 23.5463 13.355C23.7656 13.0517 23.9079 12.711 23.9733 12.333C24.0293 12.0903 24.0596 11.8243 24.0643 11.535C24.0689 11.241 24.0713 11.0217 24.0713 10.877L24.4633 11.08C24.1133 11.1267 23.7329 11.1733 23.3223 11.22C22.9163 11.2667 22.5149 11.3203 22.1183 11.381C21.7263 11.4417 21.3716 11.514 21.0543 11.598C20.8396 11.6587 20.6319 11.745 20.4313 11.857C20.2306 11.9643 20.0649 12.109 19.9343 12.291C19.8083 12.473 19.7453 12.6993 19.7453 12.97C19.7453 13.1893 19.7989 13.4017 19.9062 13.607C20.0183 13.8123 20.1956 13.9827 20.4383 14.118C20.6856 14.2533 21.0123 14.321 21.4183 14.321ZM29.9185 18.57C29.5312 18.57 29.1485 18.5117 28.7705 18.395C28.3972 18.283 28.0519 18.1033 27.7345 17.856C27.4172 17.6133 27.1512 17.296 26.9365 16.904L27.8675 16.386C28.0775 16.806 28.3715 17.107 28.7495 17.289C29.1322 17.4757 29.5219 17.569 29.9185 17.569C30.4645 17.569 30.9055 17.4663 31.2415 17.261C31.5822 17.0603 31.8295 16.7617 31.9835 16.365C32.1375 15.9683 32.2122 15.4737 32.2075 14.881V12.865H32.3265V7.44H33.2435V14.895C33.2435 15.1097 33.2365 15.315 33.2225 15.511C33.2132 15.7117 33.1922 15.9077 33.1595 16.099C33.0709 16.6637 32.8865 17.128 32.6065 17.492C32.3312 17.856 31.9672 18.1267 31.5145 18.304C31.0665 18.4813 30.5345 18.57 29.9185 18.57ZM29.8485 15.21C29.1439 15.21 28.5419 15.035 28.0425 14.685C27.5432 14.3303 27.1605 13.852 26.8945 13.25C26.6285 12.648 26.4955 11.969 26.4955 11.213C26.4955 10.4617 26.6262 9.785 26.8875 9.183C27.1535 8.581 27.5339 8.105 28.0285 7.755C28.5232 7.405 29.1159 7.23 29.8065 7.23C30.5159 7.23 31.1132 7.40267 31.5985 7.748C32.0839 8.09333 32.4502 8.567 32.6975 9.169C32.9495 9.76633 33.0755 10.4477 33.0755 11.213C33.0755 11.9643 32.9519 12.6433 32.7045 13.25C32.4572 13.852 32.0932 14.3303 31.6125 14.685C31.1319 15.035 30.5439 15.21 29.8485 15.21ZM29.9535 14.251C30.4902 14.251 30.9335 14.1203 31.2835 13.859C31.6335 13.5977 31.8949 13.2383 32.0675 12.781C32.2402 12.319 32.3265 11.7963 32.3265 11.213C32.3265 10.6203 32.2402 10.0977 32.0675 9.645C31.8949 9.18767 31.6335 8.83067 31.2835 8.574C30.9382 8.31733 30.5019 8.189 29.9745 8.189C29.4332 8.189 28.9852 8.322 28.6305 8.588C28.2759 8.854 28.0122 9.21567 27.8395 9.673C27.6715 10.1303 27.5875 10.6437 27.5875 11.213C27.5875 11.787 27.6739 12.305 27.8465 12.767C28.0239 13.2243 28.2875 13.586 28.6375 13.852C28.9875 14.118 29.4262 14.251 29.9535 14.251ZM37.3637 15.21C36.7944 15.21 36.316 15.1073 35.9287 14.902C35.546 14.6967 35.259 14.4237 35.0677 14.083C34.8764 13.7423 34.7807 13.3713 34.7807 12.97C34.7807 12.5593 34.8624 12.2093 35.0257 11.92C35.1937 11.626 35.42 11.3857 35.7047 11.199C35.994 11.0123 36.3277 10.87 36.7057 10.772C37.0884 10.6787 37.5107 10.597 37.9727 10.527C38.4394 10.4523 38.8944 10.3893 39.3377 10.338C39.7857 10.282 40.1777 10.2283 40.5137 10.177L40.1497 10.401C40.1637 9.65433 40.019 9.10133 39.7157 8.742C39.4124 8.38267 38.885 8.203 38.1337 8.203C37.6157 8.203 37.177 8.31967 36.8177 8.553C36.463 8.78633 36.2134 9.155 36.0687 9.659L35.0677 9.365C35.2404 8.68833 35.588 8.16333 36.1107 7.79C36.6334 7.41667 37.3124 7.23 38.1477 7.23C38.8384 7.23 39.424 7.36067 39.9047 7.622C40.39 7.87867 40.733 8.252 40.9337 8.742C41.027 8.96133 41.0877 9.20633 41.1157 9.477C41.1437 9.74767 41.1577 10.023 41.1577 10.303V15H40.2407V13.103L40.5067 13.215C40.25 13.8637 39.851 14.3583 39.3097 14.699C38.7684 15.0397 38.1197 15.21 37.3637 15.21ZM37.4827 14.321C37.9634 14.321 38.3834 14.2347 38.7427 14.062C39.102 13.8893 39.3914 13.6537 39.6107 13.355C39.83 13.0517 39.9724 12.711 40.0377 12.333C40.0937 12.0903 40.124 11.8243 40.1287 11.535C40.1334 11.241 40.1357 11.0217 40.1357 10.877L40.5277 11.08C40.1777 11.1267 39.7974 11.1733 39.3867 11.22C38.9807 11.2667 38.5794 11.3203 38.1827 11.381C37.7907 11.4417 37.436 11.514 37.1187 11.598C36.904 11.6587 36.6964 11.745 36.4957 11.857C36.295 11.9643 36.1294 12.109 35.9987 12.291C35.8727 12.473 35.8097 12.6993 35.8097 12.97C35.8097 13.1893 35.8634 13.4017 35.9707 13.607C36.0827 13.8123 36.26 13.9827 36.5027 14.118C36.75 14.2533 37.0767 14.321 37.4827 14.321ZM45.913 15.21C45.2083 15.21 44.6063 15.035 44.107 14.685C43.6077 14.3303 43.225 13.852 42.959 13.25C42.693 12.648 42.56 11.969 42.56 11.213C42.56 10.4617 42.6907 9.785 42.952 9.183C43.218 8.581 43.5983 8.105 44.093 7.755C44.5877 7.405 45.1803 7.23 45.871 7.23C46.5803 7.23 47.1777 7.40267 47.663 7.748C48.1483 8.09333 48.5147 8.567 48.762 9.169C49.014 9.76633 49.14 10.4477 49.14 11.213C49.14 11.9643 49.0163 12.6433 48.769 13.25C48.5217 13.852 48.1577 14.3303 47.677 14.685C47.1963 15.035 46.6083 15.21 45.913 15.21ZM46.018 14.251C46.5547 14.251 46.998 14.1203 47.348 13.859C47.698 13.5977 47.9593 13.2383 48.132 12.781C48.3047 12.319 48.391 11.7963 48.391 11.213C48.391 10.6203 48.3047 10.0977 48.132 9.645C47.9593 9.18767 47.698 8.83067 47.348 8.574C47.0027 8.31733 46.5663 8.189 46.039 8.189C45.4977 8.189 45.0497 8.322 44.695 8.588C44.3403 8.854 44.0767 9.21567 43.904 9.673C43.736 10.1303 43.652 10.6437 43.652 11.213C43.652 11.787 43.7383 12.305 43.911 12.767C44.0883 13.2243 44.352 13.586 44.702 13.852C45.052 14.118 45.4907 14.251 46.018 14.251ZM48.391 15V9.309H48.279V4.92H49.315V15H48.391ZM53.4418 15.21C52.8725 15.21 52.3942 15.1073 52.0068 14.902C51.6242 14.6967 51.3372 14.4237 51.1458 14.083C50.9545 13.7423 50.8588 13.3713 50.8588 12.97C50.8588 12.5593 50.9405 12.2093 51.1038 11.92C51.2718 11.626 51.4982 11.3857 51.7828 11.199C52.0722 11.0123 52.4058 10.87 52.7838 10.772C53.1665 10.6787 53.5888 10.597 54.0508 10.527C54.5175 10.4523 54.9725 10.3893 55.4158 10.338C55.8638 10.282 56.2558 10.2283 56.5918 10.177L56.2278 10.401C56.2418 9.65433 56.0972 9.10133 55.7938 8.742C55.4905 8.38267 54.9632 8.203 54.2118 8.203C53.6938 8.203 53.2552 8.31967 52.8958 8.553C52.5412 8.78633 52.2915 9.155 52.1468 9.659L51.1458 9.365C51.3185 8.68833 51.6662 8.16333 52.1888 7.79C52.7115 7.41667 53.3905 7.23 54.2258 7.23C54.9165 7.23 55.5022 7.36067 55.9828 7.622C56.4682 7.87867 56.8112 8.252 57.0118 8.742C57.1052 8.96133 57.1658 9.20633 57.1938 9.477C57.2218 9.74767 57.2358 10.023 57.2358 10.303V15H56.3188V13.103L56.5848 13.215C56.3282 13.8637 55.9292 14.3583 55.3878 14.699C54.8465 15.0397 54.1978 15.21 53.4418 15.21ZM53.5608 14.321C54.0415 14.321 54.4615 14.2347 54.8208 14.062C55.1802 13.8893 55.4695 13.6537 55.6888 13.355C55.9082 13.0517 56.0505 12.711 56.1158 12.333C56.1718 12.0903 56.2022 11.8243 56.2068 11.535C56.2115 11.241 56.2138 11.0217 56.2138 10.877L56.6058 11.08C56.2558 11.1267 55.8755 11.1733 55.4648 11.22C55.0588 11.2667 54.6575 11.3203 54.2608 11.381C53.8688 11.4417 53.5142 11.514 53.1968 11.598C52.9822 11.6587 52.7745 11.745 52.5738 11.857C52.3732 11.9643 52.2075 12.109 52.0768 12.291C51.9508 12.473 51.8878 12.6993 51.8878 12.97C51.8878 13.1893 51.9415 13.4017 52.0488 13.607C52.1608 13.8123 52.3382 13.9827 52.5808 14.118C52.8282 14.2533 53.1548 14.321 53.5608 14.321Z" fill="#A8A8A8"/>
<circle cx="69" cy="9.5" r="2" fill="#A8A8A8"/>
<path d="M80.12 15V4.92H81.149V14.013H85.937V15H80.12ZM89.2934 15.21C88.7241 15.21 88.2457 15.1073 87.8584 14.902C87.4757 14.6967 87.1887 14.4237 86.9974 14.083C86.8061 13.7423 86.7104 13.3713 86.7104 12.97C86.7104 12.5593 86.7921 12.2093 86.9554 11.92C87.1234 11.626 87.3497 11.3857 87.6344 11.199C87.9237 11.0123 88.2574 10.87 88.6354 10.772C89.0181 10.6787 89.4404 10.597 89.9024 10.527C90.3691 10.4523 90.8241 10.3893 91.2674 10.338C91.7154 10.282 92.1074 10.2283 92.4434 10.177L92.0794 10.401C92.0934 9.65433 91.9487 9.10133 91.6454 8.742C91.3421 8.38267 90.8147 8.203 90.0634 8.203C89.5454 8.203 89.1067 8.31967 88.7474 8.553C88.3927 8.78633 88.1431 9.155 87.9984 9.659L86.9974 9.365C87.1701 8.68833 87.5177 8.16333 88.0404 7.79C88.5631 7.41667 89.2421 7.23 90.0774 7.23C90.7681 7.23 91.3537 7.36067 91.8344 7.622C92.3197 7.87867 92.6627 8.252 92.8634 8.742C92.9567 8.96133 93.0174 9.20633 93.0454 9.477C93.0734 9.74767 93.0874 10.023 93.0874 10.303V15H92.1704V13.103L92.4364 13.215C92.1797 13.8637 91.7807 14.3583 91.2394 14.699C90.6981 15.0397 90.0494 15.21 89.2934 15.21ZM89.4124 14.321C89.8931 14.321 90.3131 14.2347 90.6724 14.062C91.0317 13.8893 91.3211 13.6537 91.5404 13.355C91.7597 13.0517 91.9021 12.711 91.9674 12.333C92.0234 12.0903 92.0537 11.8243 92.0584 11.535C92.0631 11.241 92.0654 11.0217 92.0654 10.877L92.4574 11.08C92.1074 11.1267 91.7271 11.1733 91.3164 11.22C90.9104 11.2667 90.5091 11.3203 90.1124 11.381C89.7204 11.4417 89.3657 11.514 89.0484 11.598C88.8337 11.6587 88.6261 11.745 88.4254 11.857C88.2247 11.9643 88.0591 12.109 87.9284 12.291C87.8024 12.473 87.7394 12.6993 87.7394 12.97C87.7394 13.1893 87.7931 13.4017 87.9004 13.607C88.0124 13.8123 88.1897 13.9827 88.4324 14.118C88.6797 14.2533 89.0064 14.321 89.4124 14.321ZM97.9127 18.57C97.5254 18.57 97.1427 18.5117 96.7647 18.395C96.3914 18.283 96.046 18.1033 95.7287 17.856C95.4114 17.6133 95.1454 17.296 94.9307 16.904L95.8617 16.386C96.0717 16.806 96.3657 17.107 96.7437 17.289C97.1264 17.4757 97.516 17.569 97.9127 17.569C98.4587 17.569 98.8997 17.4663 99.2357 17.261C99.5764 17.0603 99.8237 16.7617 99.9777 16.365C100.132 15.9683 100.206 15.4737 100.202 14.881V12.865H100.321V7.44H101.238V14.895C101.238 15.1097 101.231 15.315 101.217 15.511C101.207 15.7117 101.186 15.9077 101.154 16.099C101.065 16.6637 100.881 17.128 100.601 17.492C100.325 17.856 99.9614 18.1267 99.5087 18.304C99.0607 18.4813 98.5287 18.57 97.9127 18.57ZM97.8427 15.21C97.138 15.21 96.536 15.035 96.0367 14.685C95.5374 14.3303 95.1547 13.852 94.8887 13.25C94.6227 12.648 94.4897 11.969 94.4897 11.213C94.4897 10.4617 94.6204 9.785 94.8817 9.183C95.1477 8.581 95.528 8.105 96.0227 7.755C96.5174 7.405 97.11 7.23 97.8007 7.23C98.51 7.23 99.1074 7.40267 99.5927 7.748C100.078 8.09333 100.444 8.567 100.692 9.169C100.944 9.76633 101.07 10.4477 101.07 11.213C101.07 11.9643 100.946 12.6433 100.699 13.25C100.451 13.852 100.087 14.3303 99.6067 14.685C99.126 15.035 98.538 15.21 97.8427 15.21ZM97.9477 14.251C98.4844 14.251 98.9277 14.1203 99.2777 13.859C99.6277 13.5977 99.889 13.2383 100.062 12.781C100.234 12.319 100.321 11.7963 100.321 11.213C100.321 10.6203 100.234 10.0977 100.062 9.645C99.889 9.18767 99.6277 8.83067 99.2777 8.574C98.9324 8.31733 98.496 8.189 97.9687 8.189C97.4274 8.189 96.9794 8.322 96.6247 8.588C96.27 8.854 96.0064 9.21567 95.8337 9.673C95.6657 10.1303 95.5817 10.6437 95.5817 11.213C95.5817 11.787 95.668 12.305 95.8407 12.767C96.018 13.2243 96.2817 13.586 96.6317 13.852C96.9817 14.118 97.4204 14.251 97.9477 14.251ZM106.352 15.21C105.601 15.21 104.959 15.0397 104.427 14.699C103.895 14.3583 103.487 13.887 103.202 13.285C102.917 12.683 102.775 11.9923 102.775 11.213C102.775 10.4197 102.92 9.72433 103.209 9.127C103.498 8.52967 103.909 8.06533 104.441 7.734C104.978 7.398 105.615 7.23 106.352 7.23C107.108 7.23 107.752 7.40033 108.284 7.741C108.821 8.077 109.229 8.546 109.509 9.148C109.794 9.74533 109.936 10.4337 109.936 11.213C109.936 12.0063 109.794 12.704 109.509 13.306C109.224 13.9033 108.814 14.37 108.277 14.706C107.74 15.042 107.099 15.21 106.352 15.21ZM106.352 14.223C107.192 14.223 107.817 13.9453 108.228 13.39C108.639 12.83 108.844 12.1043 108.844 11.213C108.844 10.2983 108.636 9.57033 108.221 9.029C107.81 8.48767 107.187 8.217 106.352 8.217C105.787 8.217 105.321 8.34533 104.952 8.602C104.588 8.854 104.315 9.20633 104.133 9.659C103.956 10.107 103.867 10.625 103.867 11.213C103.867 12.123 104.077 12.8533 104.497 13.404C104.917 13.95 105.535 14.223 106.352 14.223ZM114.233 15.203C113.346 15.203 112.616 15.0117 112.042 14.629C111.472 14.2463 111.122 13.7143 110.992 13.033L112.042 12.858C112.154 13.2873 112.408 13.6303 112.805 13.887C113.206 14.139 113.701 14.265 114.289 14.265C114.863 14.265 115.315 14.146 115.647 13.908C115.978 13.6653 116.144 13.3363 116.144 12.921C116.144 12.6877 116.09 12.4987 115.983 12.354C115.88 12.2047 115.668 12.067 115.346 11.941C115.024 11.815 114.543 11.6657 113.904 11.493C113.218 11.3063 112.681 11.1197 112.294 10.933C111.906 10.7463 111.631 10.5317 111.468 10.289C111.304 10.0417 111.223 9.74067 111.223 9.386C111.223 8.95667 111.344 8.581 111.587 8.259C111.829 7.93233 112.165 7.68033 112.595 7.503C113.024 7.321 113.523 7.23 114.093 7.23C114.662 7.23 115.171 7.32333 115.619 7.51C116.071 7.692 116.435 7.94867 116.711 8.28C116.986 8.61133 117.149 8.99633 117.201 9.435L116.151 9.624C116.081 9.18067 115.859 8.83067 115.486 8.574C115.117 8.31267 114.648 8.17733 114.079 8.168C113.542 8.154 113.106 8.25667 112.77 8.476C112.434 8.69067 112.266 8.97767 112.266 9.337C112.266 9.53767 112.326 9.71033 112.448 9.855C112.569 9.995 112.788 10.128 113.106 10.254C113.428 10.38 113.885 10.5177 114.478 10.667C115.173 10.8443 115.719 11.031 116.116 11.227C116.512 11.423 116.795 11.654 116.963 11.92C117.131 12.186 117.215 12.515 117.215 12.907C117.215 13.621 116.949 14.1833 116.417 14.594C115.889 15 115.161 15.203 114.233 15.203Z" fill="#A8A8A8"/>
</svg>
