<svg width="148" height="44" viewBox="0 0 148 44" fill="none" xmlns="http://www.w3.org/2000/svg">
<path fill-rule="evenodd" clip-rule="evenodd" d="M44.2142 0.305023H0.824219V43.695H44.2142V0.305023ZM4.16191 40.3573V3.64271H40.8765V40.3573H4.16191ZM9.43551 13.856C9.32549 13.7735 9.16849 13.852 9.16849 13.9895V30.1773C9.16849 30.2695 9.24321 30.3442 9.33537 30.3442H12.3393C12.4315 30.3442 12.5062 30.2695 12.5062 30.1773V20.6649C12.5062 20.5274 12.6632 20.4489 12.7732 20.5314L17.4126 24.011C17.4719 24.0555 17.5535 24.0555 17.6128 24.011L22.2522 20.5314C22.3622 20.4489 22.5192 20.5274 22.5192 20.6649V30.1773C22.5192 30.2695 22.594 30.3442 22.6861 30.3442H29.1946C33.803 30.3442 37.5388 26.6084 37.5388 22C37.5388 17.3916 33.803 13.6558 29.1946 13.6558H25.8569L17.6128 19.8388C17.5535 19.8834 17.4719 19.8834 17.4126 19.8388L9.43551 13.856ZM25.8569 26.8396V16.8266C25.8569 16.9188 25.9316 16.9935 26.0238 16.9935H29.1946C31.9597 16.9935 34.2012 19.235 34.2012 22C34.2012 24.765 31.9597 27.0065 29.1946 27.0065H26.0238C25.9316 27.0065 25.8569 26.9318 25.8569 26.8396Z" fill="#0A66C2"/>
<path d="M50.9395 28.0078V15.9922H52.9754L56.9473 23.9692L60.9191 15.9922H62.9551V28.0078H60.8357V20.8318L57.3478 28.0078H56.5468L53.0589 20.8318V28.0078H50.9395Z" fill="#0A66C2"/>
<path d="M67.2332 28.0078V23.1181L63.1279 15.9922H65.7813L68.3847 20.5147L70.9881 15.9922H73.6416L69.5362 23.1181V28.0078H67.2332Z" fill="#0A66C2"/>
<path d="M77.8176 28.0078V15.9922H81.706C81.8006 15.9922 81.9953 15.9949 82.2901 16.0005C82.585 16.0061 82.8687 16.0255 83.1412 16.0589C84.1092 16.1757 84.9297 16.5123 85.6028 17.0686C86.2759 17.6248 86.7877 18.3313 87.1381 19.188C87.4886 20.0447 87.6638 20.982 87.6638 22C87.6638 23.018 87.4886 23.9553 87.1381 24.812C86.7877 25.6687 86.2759 26.3752 85.6028 26.9314C84.9297 27.4877 84.1092 27.8243 83.1412 27.9411C82.8687 27.9745 82.585 27.9939 82.2901 27.9995C81.9953 28.0051 81.8006 28.0078 81.706 28.0078H77.8176ZM80.1206 25.8717H81.706C81.8562 25.8717 82.0593 25.8689 82.3152 25.8634C82.5711 25.8523 82.8019 25.8272 83.0077 25.7883C83.5306 25.6826 83.9562 25.4378 84.2844 25.054C84.6182 24.6702 84.8629 24.2084 85.0187 23.6688C85.18 23.1293 85.2607 22.573 85.2607 22C85.2607 21.3992 85.1772 20.829 85.0103 20.2894C84.849 19.7498 84.6015 19.2937 84.2677 18.921C83.9339 18.5483 83.5139 18.3119 83.0077 18.2117C82.8019 18.1672 82.5711 18.1422 82.3152 18.1366C82.0593 18.1311 81.8562 18.1283 81.706 18.1283H80.1206V25.8717Z" fill="#0A66C2"/>
<path d="M88.6645 28.0078V15.9922H96.508V18.1116H90.9341V20.6816H95.5067V22.801H90.9341V25.8884H96.508V28.0078H88.6645Z" fill="#0A66C2"/>
<path d="M97.5067 28.0078V15.9922H102.313C103.17 15.9922 103.862 16.1646 104.391 16.5095C104.919 16.8488 105.306 17.2772 105.551 17.7945C105.795 18.3119 105.918 18.8348 105.918 19.3632C105.918 20.0363 105.765 20.5954 105.459 21.0404C105.158 21.4854 104.744 21.7831 104.215 21.9332V21.516C104.966 21.6718 105.528 22.0195 105.901 22.5591C106.279 23.0987 106.468 23.7022 106.468 24.3698C106.468 25.0874 106.335 25.7187 106.068 26.2639C105.806 26.8091 105.406 27.2374 104.866 27.5489C104.327 27.8549 103.648 28.0078 102.83 28.0078H97.5067ZM99.8097 25.8717H102.597C102.903 25.8717 103.175 25.8077 103.414 25.6798C103.654 25.5463 103.84 25.3627 103.973 25.1291C104.113 24.8899 104.182 24.609 104.182 24.2863C104.182 24.0026 104.124 23.7495 104.007 23.527C103.89 23.3045 103.712 23.1293 103.473 23.0013C103.239 22.8678 102.947 22.801 102.597 22.801H99.8097V25.8717ZM99.8097 20.6816H102.28C102.536 20.6816 102.764 20.6371 102.964 20.5481C103.164 20.4591 103.323 20.3228 103.439 20.1392C103.556 19.9501 103.615 19.7081 103.615 19.4133C103.615 19.0461 103.501 18.7374 103.273 18.4871C103.045 18.2368 102.714 18.1116 102.28 18.1116H99.8097V20.6816Z" fill="#0A66C2"/>
<path d="M109.592 28.0078V18.1116H105.804V15.9922H115.65V18.1116H111.862V28.0078H109.592Z" fill="#0A66C2"/>
<path d="M121.147 28.2582C119.945 28.2582 118.908 27.9967 118.034 27.4738C117.166 26.9509 116.496 26.2194 116.023 25.2793C115.556 24.3392 115.322 23.2461 115.322 22C115.322 20.7539 115.556 19.6608 116.023 18.7207C116.496 17.7806 117.166 17.0491 118.034 16.5262C118.908 16.0033 119.945 15.7418 121.147 15.7418C122.348 15.7418 123.383 16.0033 124.251 16.5262C125.124 17.0491 125.794 17.7806 126.262 18.7207C126.734 19.6608 126.971 20.7539 126.971 22C126.971 23.2461 126.734 24.3392 126.262 25.2793C125.794 26.2194 125.124 26.9509 124.251 27.4738C123.383 27.9967 122.348 28.2582 121.147 28.2582ZM121.147 26.122C121.909 26.1332 122.543 25.9691 123.049 25.6297C123.555 25.2904 123.934 24.8092 124.184 24.1862C124.44 23.5632 124.568 22.8344 124.568 22C124.568 21.1656 124.44 20.4424 124.184 19.8305C123.934 19.2186 123.555 18.743 123.049 18.4036C122.543 18.0643 121.909 17.8891 121.147 17.878C120.384 17.8668 119.75 18.0309 119.244 18.3703C118.738 18.7096 118.357 19.1908 118.101 19.8138C117.851 20.4369 117.725 21.1656 117.725 22C117.725 22.8344 117.851 23.5576 118.101 24.1695C118.357 24.7814 118.738 25.257 119.244 25.5964C119.75 25.9357 120.384 26.1109 121.147 26.122Z" fill="#0A66C2"/>
<path d="M127.635 28.0078V15.9922H132.709C132.825 15.9922 132.981 15.9977 133.176 16.0089C133.376 16.0144 133.554 16.0311 133.71 16.0589C134.427 16.1702 135.014 16.4066 135.47 16.7682C135.932 17.1298 136.272 17.5859 136.488 18.1366C136.705 18.6818 136.814 19.2909 136.814 19.964C136.814 20.9709 136.564 21.8331 136.063 22.5507C135.562 23.2628 134.778 23.7022 133.71 23.8691L132.709 23.9359H129.905V28.0078H127.635ZM134.411 28.0078L132.041 23.1181L134.377 22.6675L136.981 28.0078H134.411ZM129.905 21.8164H132.608C132.725 21.8164 132.853 21.8109 132.992 21.7997C133.131 21.7886 133.259 21.7664 133.376 21.733C133.682 21.6495 133.918 21.5105 134.085 21.3158C134.252 21.1155 134.366 20.8958 134.427 20.6566C134.494 20.4118 134.528 20.181 134.528 19.964C134.528 19.7471 134.494 19.519 134.427 19.2798C134.366 19.035 134.252 18.8153 134.085 18.6206C133.918 18.4203 133.682 18.2785 133.376 18.195C133.259 18.1617 133.131 18.1394 132.992 18.1283C132.853 18.1172 132.725 18.1116 132.608 18.1116H129.905V21.8164Z" fill="#0A66C2"/>
<path d="M142.353 28.2582C141.463 28.2582 140.659 28.1024 139.942 27.7909C139.23 27.4738 138.643 27.0232 138.181 26.4391C137.725 25.8495 137.436 25.1486 137.313 24.3364L139.683 23.9859C139.85 24.6757 140.195 25.207 140.718 25.5797C141.241 25.9524 141.836 26.1387 142.503 26.1387C142.876 26.1387 143.238 26.0803 143.588 25.9635C143.939 25.8467 144.225 25.6742 144.448 25.4462C144.676 25.2181 144.79 24.9372 144.79 24.6034C144.79 24.481 144.77 24.3642 144.731 24.2529C144.698 24.1361 144.639 24.0276 144.556 23.9275C144.473 23.8274 144.353 23.7328 144.197 23.6438C144.047 23.5548 143.855 23.4741 143.621 23.4018L140.501 22.484C140.267 22.4172 139.994 22.3226 139.683 22.2003C139.377 22.0779 139.079 21.9027 138.79 21.6746C138.501 21.4465 138.259 21.1461 138.064 20.7734C137.875 20.3951 137.781 19.9195 137.781 19.3465C137.781 18.5399 137.984 17.8696 138.39 17.3356C138.796 16.8016 139.338 16.4038 140.017 16.1424C140.695 15.8809 141.446 15.753 142.27 15.7585C143.099 15.7696 143.838 15.9115 144.489 16.1841C145.14 16.4567 145.685 16.8544 146.125 17.3773C146.564 17.8946 146.881 18.5288 147.076 19.2798L144.623 19.697C144.534 19.3076 144.37 18.9794 144.13 18.7124C143.891 18.4454 143.605 18.2423 143.271 18.1033C142.943 17.9642 142.598 17.8891 142.236 17.878C141.88 17.8668 141.544 17.9169 141.227 18.0282C140.915 18.1338 140.659 18.2896 140.459 18.4954C140.264 18.7013 140.167 18.946 140.167 19.2297C140.167 19.4912 140.248 19.7053 140.409 19.8722C140.57 20.0335 140.773 20.1643 141.018 20.2644C141.263 20.3645 141.513 20.448 141.769 20.5147L143.855 21.0821C144.167 21.1656 144.512 21.2768 144.89 21.4159C145.268 21.5494 145.63 21.7385 145.975 21.9833C146.325 22.2225 146.611 22.5396 146.834 22.9346C147.062 23.3295 147.176 23.8302 147.176 24.4365C147.176 25.0818 147.04 25.6464 146.767 26.1304C146.5 26.6088 146.139 27.0065 145.682 27.3236C145.226 27.6351 144.709 27.8688 144.13 28.0245C143.557 28.1803 142.965 28.2582 142.353 28.2582Z" fill="#0A66C2"/>
</svg>
