<svg width="189" height="56" viewBox="0 0 189 56" fill="none" xmlns="http://www.w3.org/2000/svg">
<path fill-rule="evenodd" clip-rule="evenodd" d="M56 0H0V56H56V0ZM4.30769 51.6923V4.30769H51.6923V51.6923H4.30769ZM11.1139 17.4892C10.9719 17.3827 10.7693 17.4841 10.7693 17.6615V38.5539C10.7693 38.6728 10.8657 38.7692 10.9847 38.7692H14.8616C14.9806 38.7692 15.077 38.6728 15.077 38.5539V26.2769C15.077 26.0994 15.2796 25.9981 15.4216 26.1046L21.4093 30.5954C21.4859 30.6528 21.5912 30.6528 21.6678 30.5954L27.6555 26.1046C27.7974 25.9981 28.0001 26.0994 28.0001 26.2769V38.5539C28.0001 38.6728 28.0965 38.7692 28.2155 38.7692H36.6155C42.5631 38.7692 47.3847 33.9477 47.3847 28C47.3847 22.0523 42.5631 17.2308 36.6155 17.2308H32.3078L21.6678 25.2108C21.5912 25.2682 21.4859 25.2682 21.4093 25.2108L11.1139 17.4892ZM32.3078 34.2462V21.3231C32.3078 21.442 32.4042 21.5385 32.5231 21.5385H36.6155C40.1841 21.5385 43.077 24.4314 43.077 28C43.077 31.5686 40.1841 34.4615 36.6155 34.4615H32.5231C32.4042 34.4615 32.3078 34.3651 32.3078 34.2462Z" fill="#FEFEFE"/>
<path d="M64 35.7539V20.2462H66.6277L71.7538 30.5416L76.88 20.2462H79.5077V35.7539H76.7723V26.4923L72.2708 35.7539H71.2369L66.7354 26.4923V35.7539H64Z" fill="#FEFEFE"/>
<path d="M85.0291 35.7539V29.4431L79.7307 20.2462H83.1553L86.5153 26.0831L89.8753 20.2462H93.2999L88.0014 29.4431V35.7539H85.0291Z" fill="#FEFEFE"/>
<path d="M98.6895 35.7539V20.2462H103.708C103.83 20.2462 104.081 20.2498 104.462 20.2569C104.842 20.2641 105.209 20.2892 105.56 20.3323C106.81 20.4831 107.869 20.9175 108.737 21.6354C109.606 22.3534 110.266 23.2651 110.719 24.3708C111.171 25.4764 111.397 26.6862 111.397 28C111.397 29.3139 111.171 30.5236 110.719 31.6293C110.266 32.7349 109.606 33.6467 108.737 34.3646C107.869 35.0826 106.81 35.5169 105.56 35.6677C105.209 35.7108 104.842 35.7359 104.462 35.7431C104.081 35.7503 103.83 35.7539 103.708 35.7539H98.6895ZM101.662 32.9969H103.708C103.902 32.9969 104.164 32.9934 104.494 32.9862C104.824 32.9718 105.122 32.9395 105.388 32.8892C106.063 32.7528 106.612 32.4369 107.036 31.9416C107.466 31.4462 107.782 30.8503 107.983 30.1539C108.192 29.4575 108.296 28.7395 108.296 28C108.296 27.2246 108.188 26.4887 107.973 25.7923C107.764 25.0959 107.445 24.5072 107.014 24.0262C106.583 23.5451 106.041 23.24 105.388 23.1108C105.122 23.0534 104.824 23.021 104.494 23.0139C104.164 23.0067 103.902 23.0031 103.708 23.0031H101.662V32.9969Z" fill="#FEFEFE"/>
<path d="M112.689 35.7539V20.2462H122.812V22.9816H115.618V26.2985H121.519V29.0339H115.618V33.0185H122.812V35.7539H112.689Z" fill="#FEFEFE"/>
<path d="M124.101 35.7539V20.2462H130.304C131.409 20.2462 132.303 20.4687 132.985 20.9139C133.667 21.3518 134.166 21.9046 134.482 22.5723C134.798 23.24 134.956 23.9149 134.956 24.5969C134.956 25.4657 134.759 26.1872 134.364 26.7616C133.976 27.3359 133.441 27.72 132.759 27.9139V27.3754C133.728 27.5764 134.454 28.0251 134.935 28.7216C135.423 29.418 135.667 30.1969 135.667 31.0585C135.667 31.9846 135.495 32.7995 135.15 33.5031C134.813 34.2067 134.296 34.7595 133.599 35.1616C132.903 35.5564 132.027 35.7539 130.971 35.7539H124.101ZM127.073 32.9969H130.67C131.065 32.9969 131.417 32.9144 131.725 32.7492C132.034 32.5769 132.275 32.34 132.447 32.0385C132.626 31.7298 132.716 31.3672 132.716 30.9508C132.716 30.5846 132.641 30.258 132.49 29.9708C132.339 29.6836 132.109 29.4575 131.801 29.2923C131.499 29.12 131.122 29.0339 130.67 29.0339H127.073V32.9969ZM127.073 26.2985H130.261C130.591 26.2985 130.885 26.241 131.144 26.1262C131.402 26.0113 131.607 25.8354 131.758 25.5985C131.908 25.3544 131.984 25.0421 131.984 24.6616C131.984 24.1877 131.837 23.7892 131.542 23.4662C131.248 23.1431 130.821 22.9816 130.261 22.9816H127.073V26.2985Z" fill="#FEFEFE"/>
<path d="M139.699 35.7539V22.9816H134.809V20.2462H147.517V22.9816H142.628V35.7539H139.699Z" fill="#FEFEFE"/>
<path d="M154.611 36.0769C153.06 36.0769 151.721 35.7395 150.594 35.0646C149.474 34.3898 148.609 33.4457 147.998 32.2323C147.395 31.019 147.094 29.6082 147.094 28C147.094 26.3918 147.395 24.981 147.998 23.7677C148.609 22.5544 149.474 21.6103 150.594 20.9354C151.721 20.2605 153.06 19.9231 154.611 19.9231C156.162 19.9231 157.497 20.2605 158.617 20.9354C159.744 21.6103 160.609 22.5544 161.212 23.7677C161.823 24.981 162.128 26.3918 162.128 28C162.128 29.6082 161.823 31.019 161.212 32.2323C160.609 33.4457 159.744 34.3898 158.617 35.0646C157.497 35.7395 156.162 36.0769 154.611 36.0769ZM154.611 33.32C155.594 33.3344 156.413 33.1226 157.066 32.6846C157.72 32.2467 158.208 31.6257 158.531 30.8216C158.861 30.0175 159.026 29.0769 159.026 28C159.026 26.9231 158.861 25.9898 158.531 25.2C158.208 24.4103 157.72 23.7964 157.066 23.3585C156.413 22.9205 155.594 22.6944 154.611 22.68C153.627 22.6657 152.809 22.8775 152.155 23.3154C151.502 23.7534 151.01 24.3744 150.68 25.1785C150.357 25.9826 150.195 26.9231 150.195 28C150.195 29.0769 150.357 30.0103 150.68 30.8C151.01 31.5898 151.502 32.2036 152.155 32.6416C152.809 33.0795 153.627 33.3057 154.611 33.32Z" fill="#FEFEFE"/>
<path d="M162.985 35.7539V20.2462H169.533C169.684 20.2462 169.885 20.2534 170.136 20.2677C170.394 20.2749 170.624 20.2964 170.825 20.3323C171.751 20.4759 172.509 20.781 173.098 21.2477C173.693 21.7144 174.131 22.3031 174.411 23.0139C174.691 23.7175 174.831 24.5036 174.831 25.3723C174.831 26.6718 174.508 27.7846 173.862 28.7108C173.216 29.6298 172.204 30.1969 170.825 30.4123L169.533 30.4985H165.914V35.7539H162.985ZM171.73 35.7539L168.671 29.4431L171.687 28.8616L175.047 35.7539H171.73ZM165.914 27.7631H169.404C169.554 27.7631 169.72 27.7559 169.899 27.7416C170.079 27.7272 170.244 27.6985 170.394 27.6554C170.789 27.5477 171.094 27.3682 171.31 27.1169C171.525 26.8585 171.672 26.5749 171.751 26.2662C171.838 25.9503 171.881 25.6523 171.881 25.3723C171.881 25.0923 171.838 24.798 171.751 24.4892C171.672 24.1734 171.525 23.8898 171.31 23.6385C171.094 23.38 170.789 23.1969 170.394 23.0892C170.244 23.0462 170.079 23.0175 169.899 23.0031C169.72 22.9887 169.554 22.9816 169.404 22.9816H165.914V27.7631Z" fill="#FEFEFE"/>
<path d="M181.98 36.0769C180.832 36.0769 179.794 35.8759 178.868 35.4739C177.949 35.0646 177.192 34.4831 176.596 33.7292C176.007 32.9682 175.634 32.0636 175.476 31.0154L178.534 30.5631C178.75 31.4534 179.195 32.139 179.87 32.62C180.545 33.101 181.313 33.3416 182.174 33.3416C182.655 33.3416 183.122 33.2662 183.574 33.1154C184.027 32.9646 184.396 32.7421 184.684 32.4477C184.978 32.1534 185.125 31.7908 185.125 31.36C185.125 31.2021 185.1 31.0513 185.05 30.9077C185.007 30.7569 184.931 30.6169 184.824 30.4877C184.716 30.3585 184.561 30.2364 184.36 30.1216C184.167 30.0067 183.919 29.9026 183.617 29.8092L179.59 28.6246C179.288 28.5385 178.936 28.4164 178.534 28.2585C178.139 28.1005 177.755 27.8744 177.382 27.58C177.009 27.2857 176.696 26.898 176.445 26.4169C176.201 25.9287 176.079 25.3149 176.079 24.5754C176.079 23.5344 176.341 22.6692 176.865 21.98C177.389 21.2908 178.089 20.7775 178.965 20.44C179.841 20.1026 180.81 19.9375 181.873 19.9446C182.943 19.959 183.897 20.1421 184.737 20.4939C185.577 20.8457 186.281 21.359 186.848 22.0339C187.415 22.7016 187.825 23.52 188.076 24.4892L184.91 25.0277C184.795 24.5251 184.583 24.1016 184.274 23.7569C183.966 23.4123 183.596 23.1503 183.165 22.9708C182.741 22.7913 182.296 22.6944 181.83 22.68C181.37 22.6657 180.936 22.7303 180.527 22.8739C180.125 23.0103 179.794 23.2113 179.536 23.4769C179.285 23.7426 179.159 24.0585 179.159 24.4246C179.159 24.7621 179.263 25.0385 179.471 25.2539C179.679 25.4621 179.941 25.6308 180.257 25.76C180.573 25.8892 180.896 25.9969 181.227 26.0831L183.919 26.8154C184.321 26.9231 184.766 27.0667 185.254 27.2462C185.743 27.4185 186.209 27.6626 186.654 27.9785C187.107 28.2872 187.476 28.6964 187.764 29.2062C188.058 29.7159 188.205 30.3621 188.205 31.1446C188.205 31.9775 188.029 32.7062 187.677 33.3308C187.333 33.9482 186.866 34.4616 186.277 34.8708C185.689 35.2728 185.021 35.5744 184.274 35.7754C183.535 35.9764 182.77 36.0769 181.98 36.0769Z" fill="#FEFEFE"/>
</svg>
