<?xml version="1.0" standalone="no"?>
<!DOCTYPE svg PUBLIC "-//W3C//DTD SVG 20010904//EN"
 "http://www.w3.org/TR/2001/REC-SVG-20010904/DTD/svg10.dtd">
<svg version="1.0" xmlns="http://www.w3.org/2000/svg"
 width="128.000000pt" height="119.000000pt" viewBox="0 0 128.000000 119.000000"
 preserveAspectRatio="xMidYMid meet">
<metadata>
Created by potrace 1.10, written by Peter Selinger 2001-2011
</metadata>
<g transform="translate(0.000000,119.000000) scale(0.100000,-0.100000)"
fill="#000000" stroke="none">
<path d="M314 1030 c-31 -12 -72 -66 -80 -105 -3 -18 -1 -50 6 -69 20 -60 110
-118 131 -85 7 12 9 12 9 0 0 -9 8 -11 28 -6 93 23 137 132 85 213 -32 52
-118 77 -179 52z m110 -71 c52 -41 18 -139 -48 -139 -70 0 -104 92 -51 138 33
28 65 28 99 1z"/>
<path d="M806 1021 c-90 -59 -87 -184 6 -241 60 -37 130 -21 182 40 48 58 30
160 -37 200 -42 26 -113 26 -151 1z m129 -66 c40 -39 27 -104 -27 -126 -55
-23 -116 31 -103 91 13 60 86 80 130 35z"/>
<path d="M265 701 c-147 -67 -115 -219 53 -251 87 -16 142 3 126 45 -5 11 -22
15 -65 15 -129 0 -195 80 -105 127 18 10 58 18 96 19 71 2 95 18 71 48 -19 23
-124 21 -176 -3z"/>
<path d="M535 689 c-119 -105 -17 -286 135 -240 90 27 125 154 63 223 -29 32
-69 48 -117 48 -36 0 -52 -6 -81 -31z m139 -50 c54 -43 22 -133 -48 -133 -72
0 -107 85 -54 134 28 26 68 26 102 -1z"/>
<path d="M818 714 c-13 -12 -9 -54 5 -55 6 0 32 0 57 1 29 0 61 -7 90 -22 38
-19 45 -28 45 -52 0 -45 -40 -69 -127 -75 -69 -6 -73 -7 -73 -31 0 -20 6 -25
35 -31 70 -15 170 18 209 67 30 38 35 66 18 107 -25 58 -83 90 -175 95 -42 2
-80 1 -84 -4z"/>
<path d="M515 376 c-28 -13 -59 -35 -68 -49 -23 -36 -22 -98 3 -130 53 -67
201 -93 285 -49 77 39 102 77 91 136 -19 99 -188 150 -311 92z m188 -50 c80
-34 84 -85 10 -118 -89 -39 -213 -9 -221 54 -4 29 13 45 65 64 49 17 106 17
146 0z"/>
</g>
</svg>
