<?xml version="1.0" standalone="no"?>
<!DOCTYPE svg PUBLIC "-//W3C//DTD SVG 20010904//EN"
 "http://www.w3.org/TR/2001/REC-SVG-20010904/DTD/svg10.dtd">
<svg version="1.0" xmlns="http://www.w3.org/2000/svg"
 width="137.000000pt" height="119.000000pt" viewBox="0 0 137.000000 119.000000"
 preserveAspectRatio="xMidYMid meet">
<metadata>
Created by potrace 1.10, written by Peter Selinger 2001-2011
</metadata>
<g transform="translate(0.000000,119.000000) scale(0.100000,-0.100000)"
fill="#000000" stroke="none">
<path d="M305 1032 c-43 -27 -91 -84 -105 -128 -21 -63 -8 -162 33 -248 50
-105 87 -156 192 -264 98 -103 229 -197 322 -232 80 -31 183 -32 239 -2 51 26
98 79 114 126 20 63 1 96 -95 165 -146 104 -165 108 -238 50 -37 -30 -39 -30
-64 -14 -32 21 -148 139 -170 171 -15 23 -14 26 21 64 55 61 50 85 -35 209
-42 60 -81 106 -96 112 -38 14 -85 11 -118 -9z m91 -50 c16 -11 134 -175 134
-187 0 -6 -18 -32 -39 -58 -37 -44 -39 -50 -29 -79 12 -35 150 -184 212 -230
21 -15 48 -28 59 -28 11 0 39 18 63 40 51 47 45 49 167 -38 90 -65 97 -88 47
-145 -42 -48 -78 -61 -155 -55 -183 15 -455 247 -567 484 -57 121 -42 232 38
285 31 20 52 23 70 11z"/>
<path d="M746 1034 c-9 -23 12 -44 43 -44 47 0 117 -29 161 -67 49 -42 90
-121 90 -173 0 -40 14 -60 42 -60 24 0 31 36 18 94 -25 114 -103 207 -206 246
-68 25 -139 27 -148 4z"/>
<path d="M746 884 c-8 -22 8 -40 42 -47 34 -7 91 -62 99 -97 8 -34 22 -50 44
-50 66 0 -5 150 -93 196 -37 19 -84 18 -92 -2z"/>
</g>
</svg>
