<svg width="40" height="40" viewBox="0 0 40 40" fill="none" xmlns="http://www.w3.org/2000/svg">
<g clip-path="url(#clip0_1388_4973)">
<path d="M21.818 10C25.586 10 28.652 13.196 28.652 17.122C28.652 17.394 28.628 17.702 28.578 18.09L28.166 21.278C28.08 21.942 28.538 22.578 29.222 22.584L32.522 22.604C34.438 22.616 36 24.274 36 26.3C36 28.34 34.43 30 32.5 30H8.33402C5.94402 30 4.00002 27.956 4.00002 25.444C4.00002 23.618 5.03802 21.974 6.64602 21.254L7.94802 20.672C8.40802 20.466 8.96402 19.81 8.98002 19.122L9.01202 17.694C9.03602 16.624 9.85402 15.754 10.832 15.754C10.896 15.754 11.02 15.766 11.246 15.824L13.324 16.352C13.854 16.486 14.536 16.22 14.784 15.734L15.79 13.772C16.986 11.446 19.296 10 21.818 10ZM21.818 6C17.656 6 14.046 8.414 12.232 11.948C11.7758 11.826 11.3062 11.7615 10.834 11.756C7.66002 11.756 5.08802 14.364 5.01402 17.604C3.51114 18.288 2.23817 19.392 1.34853 20.7831C0.458897 22.1742 -0.0094242 23.7928 1.79395e-05 25.444C1.79395e-05 30.17 3.73002 34 8.33402 34H32.5C36.642 34 40 30.552 40 26.3C40 22.064 36.666 18.63 32.544 18.604C32.606 18.118 32.65 17.626 32.65 17.122C32.652 10.98 27.802 6 21.818 6Z" fill="#0A66C2"/>
</g>
<defs>
<clipPath id="clip0_1388_4973">
<rect width="40" height="40" fill="white"/>
</clipPath>
</defs>
</svg>
