<svg width="24" height="24" viewBox="0 0 24 24" fill="none" xmlns="http://www.w3.org/2000/svg">
                    <path
                        d="M12 1.5C6.20156 1.5 1.5 6.20156 1.5 12C1.5 17.7984 6.20156 22.5 12 22.5C17.7984 22.5 22.5 17.7984 22.5 12C22.5 6.20156 17.7984 1.5 12 1.5ZM12 20.7188C7.18594 20.7188 3.28125 16.8141 3.28125 12C3.28125 7.18594 7.18594 3.28125 12 3.28125C16.8141 3.28125 20.7188 7.18594 20.7188 12C20.7188 16.8141 16.8141 20.7188 12 20.7188ZM12.1312 8.23359C13.3734 8.23359 14.2172 9.02578 14.3109 10.1883C14.318 10.2867 14.4 10.3617 14.4984 10.3617H15.8273C15.8883 10.3617 15.9375 10.3125 15.9375 10.2516C15.9375 8.21953 14.3344 6.79688 12.1242 6.79688C9.54844 6.79688 8.0625 8.53594 8.0625 11.4094V12.6352C8.0625 15.4875 9.54844 17.2031 12.1242 17.2031C14.3273 17.2031 15.9375 15.825 15.9375 13.8891C15.9375 13.8281 15.8883 13.7789 15.8273 13.7789H14.4961C14.3977 13.7789 14.318 13.8539 14.3086 13.95C14.2102 15.0305 13.3687 15.7734 12.1289 15.7734C10.5984 15.7734 9.73594 14.6508 9.73594 12.6422V11.4094C9.73828 9.37031 10.6031 8.23359 12.1312 8.23359Z"
                        fill="#FEFEFE" />
                </svg>