<svg width="33" height="32" viewBox="0 0 33 32" fill="none" xmlns="http://www.w3.org/2000/svg">
<path d="M3.0443 10V30C3.0443 31.1 4.15199 32 5.50584 32H27.6597C29.0135 32 30.1212 31.1 30.1212 30V10H3.0443ZM10.4289 28H7.96738V14H10.4289V28ZM15.352 28H12.8905V14H15.352V28ZM20.2751 28H17.8135V14H20.2751V28ZM25.1981 28H22.7366V14H25.1981V28ZM30.7366 4H22.7366V1.5C22.7347 1.10266 22.5395 0.722048 22.1937 0.441085C21.8479 0.160122 21.3795 0.00157989 20.8905 0L12.2751 0C11.786 0.00157989 11.3176 0.160122 10.9718 0.441085C10.626 0.722048 10.4309 1.10266 10.4289 1.5V4H2.42892C1.93969 4.00106 1.47086 4.15943 1.12492 4.44051C0.778985 4.72158 0.584063 5.1025 0.582764 5.5V8H32.5828V5.5C32.5815 5.1025 32.3865 4.72158 32.0406 4.44051C31.6947 4.15943 31.2258 4.00106 30.7366 4ZM20.2751 4H12.8905V2.026H20.2751V4Z" fill="#141414"/>
</svg>
