<svg width="24" height="25" viewBox="0 0 24 25" fill="none"
                                xmlns="http://www.w3.org/2000/svg">
                                <path
                                    d="M6.09987 14.75L5.6667 14.4956L4.79987 17.75C4.66987 17.42 4.72987 17.03 4.94987 16.66L6.09987 14.75ZM6.09987 14.75C6.46987 14.12 6.76987 13.04 6.76987 12.31V9.42004C6.76987 6.52004 9.12987 4.17004 12.0199 4.17004C14.9199 4.17004 17.2699 6.52004 17.2699 9.42004V12.3C17.2699 13.03 17.5599 14.1 17.9399 14.75M6.09987 14.75L5.66952 14.4909C5.854 14.1823 5.99747 13.7874 6.094 13.4367C6.19107 13.0841 6.26987 12.6702 6.26987 12.31V9.42004C6.26987 6.25233 8.85215 3.67004 12.0199 3.67004C15.1876 3.67004 17.7699 6.25233 17.7699 9.42004V12.3V12.31C17.7699 12.6659 17.849 13.08 17.9452 13.4322C18.0415 13.785 18.1842 14.1826 18.3659 14.4935L17.9399 14.75M17.9399 14.75L18.3691 14.4991L5.62987 18.49C9.80987 19.89 14.2399 19.89 18.4199 18.49C18.7799 18.37 19.0599 18.1 19.1899 17.74C19.3199 17.38 19.2899 16.99 19.0899 16.66M17.9399 14.75L19.0899 16.66M19.0899 16.66L19.5121 16.4041L5.47211 18.9734C7.57575 19.6772 9.79668 20.03 12.0199 20.03C14.245 20.03 16.4671 19.6766 18.5611 18.9722L18.5672 18.9701L18.5673 18.9702C18.5711 18.9689 18.5749 18.9676 18.5786 18.9664L18.4199 18.4901L18.5793 18.9661C19.0771 18.7984 19.4692 18.4209 19.6511 17.9254C19.6532 17.9199 19.6552 17.9143 19.6571 17.9088C19.8363 17.4058 19.7829 16.8592 19.5129 16.4054L19.0899 16.66Z"
                                    fill="#0855A2" stroke="#0855A2" stroke-width="2" />
                                <path
                                    d="M12.0296 2.68005C12.5714 2.68005 13.0559 2.91612 13.3761 3.31144C13.2418 3.28402 13.1085 3.26045 12.9762 3.24085L12.9671 3.2395L12.958 3.23832C12.1867 3.13851 11.426 3.15913 10.6911 3.30584C11.0129 2.91568 11.4955 2.68005 12.0296 2.68005Z"
                                    fill="#0855A2" stroke="#0855A2" stroke-width="2" />
                                <mask id="path-3-inside-1_2095_7898" fill="white">
                                    <path
                                        d="M12.0195 23.3101C11.0295 23.3101 10.0695 22.9101 9.36953 22.2101C8.66953 21.5101 8.26953 20.5501 8.26953 19.5601H9.76953C9.76953 20.1501 10.0095 20.7301 10.4295 21.1501C10.8495 21.5701 11.4295 21.8101 12.0195 21.8101C13.2595 21.8101 14.2695 20.8001 14.2695 19.5601H15.7695C15.7695 21.6301 14.0895 23.3101 12.0195 23.3101Z" />
                                </mask>
                                <path
                                    d="M12.0195 23.3101C11.0295 23.3101 10.0695 22.9101 9.36953 22.2101C8.66953 21.5101 8.26953 20.5501 8.26953 19.5601H9.76953C9.76953 20.1501 10.0095 20.7301 10.4295 21.1501C10.8495 21.5701 11.4295 21.8101 12.0195 21.8101C13.2595 21.8101 14.2695 20.8001 14.2695 19.5601H15.7695C15.7695 21.6301 14.0895 23.3101 12.0195 23.3101Z"
                                    fill="#0855A2" />
                                <path
                                    d="M8.26953 19.5601V17.5601H6.26953V19.5601H8.26953ZM9.76953 19.5601H11.7695V17.5601H9.76953V19.5601ZM14.2695 19.5601V17.5601H12.2695V19.5601H14.2695ZM15.7695 19.5601H17.7695V17.5601H15.7695V19.5601ZM12.0195 21.3101C11.5632 21.3101 11.1109 21.123 10.7837 20.7958L7.95532 23.6243C9.02812 24.6971 10.4959 25.3101 12.0195 25.3101V21.3101ZM10.7837 20.7958C10.4566 20.4687 10.2695 20.0164 10.2695 19.5601H6.26953C6.26953 21.0837 6.88251 22.5515 7.95532 23.6243L10.7837 20.7958ZM8.26953 21.5601H9.76953V17.5601H8.26953V21.5601ZM7.76953 19.5601C7.76953 20.6818 8.22117 21.7701 9.01532 22.5643L11.8437 19.7358C11.7979 19.69 11.7695 19.6183 11.7695 19.5601H7.76953ZM9.01532 22.5643C9.80946 23.3584 10.8978 23.8101 12.0195 23.8101V19.8101C11.9613 19.8101 11.8896 19.7817 11.8437 19.7358L9.01532 22.5643ZM12.0195 23.8101C14.3641 23.8101 16.2695 21.9046 16.2695 19.5601H12.2695C12.2695 19.6955 12.155 19.8101 12.0195 19.8101V23.8101ZM14.2695 21.5601H15.7695V17.5601H14.2695V21.5601ZM13.7695 19.5601C13.7695 20.5255 12.985 21.3101 12.0195 21.3101V25.3101C15.1941 25.3101 17.7695 22.7346 17.7695 19.5601H13.7695Z"
                                    fill="#0855A2" mask="url(#path-3-inside-1_2095_7898)" />
                            </svg>