<svg width="32" height="32" viewBox="0 0 32 32" fill="none" xmlns="http://www.w3.org/2000/svg">
                    <path
                        d="M17.3337 26.5838C20.0234 26.2416 22.4819 24.888 24.2094 22.7982C25.937 20.7084 26.804 18.0392 26.6342 15.3331C26.4644 12.627 25.2705 10.0872 23.2953 8.22968C21.3201 6.3722 18.7117 5.33653 16.0003 5.33317C13.2856 5.33115 10.6723 6.36429 8.69278 8.22207C6.7133 10.0799 5.51665 12.6225 5.34665 15.3319C5.17665 18.0413 6.04611 20.7135 7.77785 22.8042C9.50959 24.8948 11.9733 26.2465 14.667 26.5838V18.6665H12.0003V15.9998H14.667V13.7945C14.667 12.0118 14.8537 11.3652 15.2003 10.7132C15.5418 10.0681 16.0696 9.54075 16.715 9.19984C17.2243 8.9265 17.8577 8.7625 18.9643 8.69184C19.403 8.66384 19.971 8.6985 20.6683 8.7985V11.3318H20.0003C18.7777 11.3318 18.2723 11.3892 17.971 11.5505C17.7912 11.643 17.6448 11.7894 17.5523 11.9692C17.3923 12.2705 17.3337 12.5692 17.3337 13.7932V15.9998H20.667L20.0003 18.6665H17.3337V26.5838ZM16.0003 29.3332C8.63633 29.3332 2.66699 23.3638 2.66699 15.9998C2.66699 8.63584 8.63633 2.6665 16.0003 2.6665C23.3643 2.6665 29.3337 8.63584 29.3337 15.9998C29.3337 23.3638 23.3643 29.3332 16.0003 29.3332Z"
                        fill="#FEFEFE" />
                </svg>