 <svg width="147" height="44" viewBox="0 0 147 44" fill="none" xmlns="http://www.w3.org/2000/svg">
                        <path fill-rule="evenodd" clip-rule="evenodd"
                            d="M43.3899 0.305176H0V43.6951H43.3899V0.305176ZM3.33769 40.3574V3.64286H40.0523V40.3574H3.33769ZM8.61129 13.8562C8.50127 13.7737 8.34427 13.8522 8.34427 13.9897V30.1775C8.34427 30.2697 8.41899 30.3444 8.51116 30.3444H11.5151C11.6072 30.3444 11.682 30.2697 11.682 30.1775V20.6651C11.682 20.5276 11.839 20.4491 11.949 20.5316L16.5884 24.0111C16.6477 24.0556 16.7293 24.0556 16.7886 24.0111L21.428 20.5316C21.538 20.4491 21.695 20.5276 21.695 20.6651V30.1775C21.695 30.2697 21.7697 30.3444 21.8619 30.3444H28.3704C32.9788 30.3444 36.7146 26.6086 36.7146 22.0002C36.7146 17.3918 32.9788 13.656 28.3704 13.656H25.0327L16.7886 19.839C16.7293 19.8835 16.6477 19.8835 16.5884 19.839L8.61129 13.8562ZM25.0327 26.8398V16.8268C25.0327 16.9189 25.1074 16.9936 25.1996 16.9936H28.3704C31.1354 16.9936 33.3769 19.2351 33.3769 22.0002C33.3769 24.7652 31.1354 27.0067 28.3704 27.0067H25.1996C25.1074 27.0067 25.0327 26.932 25.0327 26.8398Z"
                            fill="#FEFEFE" />
                        <path
                            d="M50.1152 28.0077V15.992H52.1512L56.1231 23.9691L60.0949 15.992H62.1309V28.0077H60.0115V20.8317L56.5236 28.0077H55.7226L52.2347 20.8317V28.0077H50.1152Z"
                            fill="#FEFEFE" />
                        <path
                            d="M66.409 28.0077V23.118L62.3037 15.992H64.9571L67.5605 20.5146L70.1639 15.992H72.8174L68.712 23.118V28.0077H66.409Z"
                            fill="#FEFEFE" />
                        <path
                            d="M76.9934 28.0077V15.992H80.8818C80.9764 15.992 81.1711 15.9948 81.4659 16.0004C81.7607 16.0059 82.0444 16.0254 82.317 16.0588C83.285 16.1756 84.1055 16.5121 84.7786 17.0684C85.4517 17.6247 85.9634 18.3312 86.3139 19.1879C86.6644 20.0445 86.8396 20.9819 86.8396 21.9999C86.8396 23.0179 86.6644 23.9552 86.3139 24.8119C85.9634 25.6685 85.4517 26.375 84.7786 26.9313C84.1055 27.4876 83.285 27.8241 82.317 27.941C82.0444 27.9743 81.7607 27.9938 81.4659 27.9994C81.1711 28.0049 80.9764 28.0077 80.8818 28.0077H76.9934ZM79.2964 25.8716H80.8818C81.032 25.8716 81.2351 25.8688 81.4909 25.8632C81.7468 25.8521 81.9777 25.8271 82.1835 25.7881C82.7064 25.6824 83.132 25.4377 83.4602 25.0539C83.7939 24.67 84.0387 24.2083 84.1945 23.6687C84.3558 23.1291 84.4365 22.5728 84.4365 21.9999C84.4365 21.3991 84.353 20.8289 84.1861 20.2893C84.0248 19.7497 83.7773 19.2936 83.4435 18.9208C83.1097 18.5481 82.6897 18.3117 82.1835 18.2116C81.9777 18.1671 81.7468 18.1421 81.4909 18.1365C81.2351 18.1309 81.032 18.1281 80.8818 18.1281H79.2964V25.8716Z"
                            fill="#FEFEFE" />
                        <path
                            d="M87.8402 28.0077V15.992H95.6838V18.1115H90.1099V20.6815H94.6825V22.8009H90.1099V25.8883H95.6838V28.0077H87.8402Z"
                            fill="#FEFEFE" />
                        <path
                            d="M96.6825 28.0077V15.992H101.489C102.345 15.992 103.038 16.1645 103.566 16.5094C104.095 16.8487 104.482 17.277 104.726 17.7944C104.971 18.3117 105.093 18.8346 105.093 19.3631C105.093 20.0362 104.941 20.5953 104.635 21.0403C104.334 21.4853 103.92 21.7829 103.391 21.9331V21.5159C104.142 21.6717 104.704 22.0193 105.077 22.5589C105.455 23.0985 105.644 23.7021 105.644 24.3696C105.644 25.0872 105.511 25.7186 105.244 26.2638C104.982 26.8089 104.582 27.2373 104.042 27.5488C103.503 27.8547 102.824 28.0077 102.006 28.0077H96.6825ZM98.9855 25.8716H101.772C102.078 25.8716 102.351 25.8076 102.59 25.6797C102.829 25.5462 103.016 25.3626 103.149 25.1289C103.288 24.8897 103.358 24.6088 103.358 24.2862C103.358 24.0025 103.299 23.7494 103.183 23.5269C103.066 23.3043 102.888 23.1291 102.649 23.0012C102.415 22.8677 102.123 22.8009 101.772 22.8009H98.9855V25.8716ZM98.9855 20.6815H101.455C101.711 20.6815 101.939 20.637 102.14 20.548C102.34 20.459 102.498 20.3227 102.615 20.1391C102.732 19.95 102.79 19.708 102.79 19.4132C102.79 19.046 102.676 18.7373 102.448 18.4869C102.22 18.2366 101.889 18.1115 101.455 18.1115H98.9855V20.6815Z"
                            fill="#FEFEFE" />
                        <path d="M108.768 28.0077V18.1115H104.98V15.992H114.826V18.1115H111.038V28.0077H108.768Z"
                            fill="#FEFEFE" />
                        <path
                            d="M120.322 28.258C119.121 28.258 118.083 27.9966 117.21 27.4737C116.342 26.9508 115.672 26.2193 115.199 25.2791C114.732 24.339 114.498 23.2459 114.498 21.9999C114.498 20.7538 114.732 19.6607 115.199 18.7206C115.672 17.7805 116.342 17.049 117.21 16.5261C118.083 16.0032 119.121 15.7417 120.322 15.7417C121.524 15.7417 122.559 16.0032 123.426 16.5261C124.3 17.049 124.97 17.7805 125.437 18.7206C125.91 19.6607 126.147 20.7538 126.147 21.9999C126.147 23.2459 125.91 24.339 125.437 25.2791C124.97 26.2193 124.3 26.9508 123.426 27.4737C122.559 27.9966 121.524 28.258 120.322 28.258ZM120.322 26.1219C121.084 26.133 121.719 25.9689 122.225 25.6296C122.731 25.2903 123.109 24.8091 123.36 24.1861C123.616 23.563 123.743 22.8343 123.743 21.9999C123.743 21.1654 123.616 20.4423 123.36 19.8304C123.109 19.2185 122.731 18.7428 122.225 18.4035C121.719 18.0642 121.084 17.8889 120.322 17.8778C119.56 17.8667 118.926 18.0308 118.42 18.3701C117.914 18.7095 117.533 19.1906 117.277 19.8137C117.026 20.4367 116.901 21.1654 116.901 21.9999C116.901 22.8343 117.026 23.5575 117.277 24.1694C117.533 24.7813 117.914 25.2569 118.42 25.5962C118.926 25.9356 119.56 26.1108 120.322 26.1219Z"
                            fill="#FEFEFE" />
                        <path
                            d="M126.811 28.0077V15.992H131.884C132.001 15.992 132.157 15.9976 132.352 16.0087C132.552 16.0143 132.73 16.031 132.886 16.0588C133.603 16.17 134.19 16.4065 134.646 16.768C135.108 17.1296 135.447 17.5858 135.664 18.1365C135.881 18.6816 135.99 19.2908 135.99 19.9639C135.99 20.9707 135.739 21.833 135.239 22.5506C134.738 23.2626 133.954 23.7021 132.886 23.869L131.884 23.9357H129.081V28.0077H126.811ZM133.587 28.0077L131.217 23.118L133.553 22.6674L136.157 28.0077H133.587ZM129.081 21.8163H131.784C131.901 21.8163 132.029 21.8107 132.168 21.7996C132.307 21.7885 132.435 21.7662 132.552 21.7329C132.858 21.6494 133.094 21.5103 133.261 21.3156C133.428 21.1154 133.542 20.8956 133.603 20.6564C133.67 20.4117 133.703 20.1808 133.703 19.9639C133.703 19.7469 133.67 19.5188 133.603 19.2796C133.542 19.0349 133.428 18.8152 133.261 18.6205C133.094 18.4202 132.858 18.2783 132.552 18.1949C132.435 18.1615 132.307 18.1393 132.168 18.1281C132.029 18.117 131.901 18.1115 131.784 18.1115H129.081V21.8163Z"
                            fill="#FEFEFE" />
                        <path
                            d="M141.529 28.258C140.639 28.258 139.835 28.1023 139.117 27.7908C138.405 27.4737 137.819 27.0231 137.357 26.439C136.901 25.8493 136.611 25.1484 136.489 24.3362L138.859 23.9858C139.026 24.6756 139.371 25.2068 139.893 25.5795C140.416 25.9522 141.012 26.1386 141.679 26.1386C142.052 26.1386 142.413 26.0802 142.764 25.9634C143.114 25.8466 143.401 25.6741 143.623 25.446C143.851 25.218 143.965 24.937 143.965 24.6033C143.965 24.4809 143.946 24.3641 143.907 24.2528C143.874 24.136 143.815 24.0275 143.732 23.9274C143.648 23.8272 143.529 23.7327 143.373 23.6437C143.223 23.5547 143.031 23.474 142.797 23.4017L139.676 22.4838C139.443 22.4171 139.17 22.3225 138.859 22.2001C138.553 22.0777 138.255 21.9025 137.966 21.6744C137.677 21.4464 137.435 21.146 137.24 20.7733C137.051 20.395 136.956 19.9194 136.956 19.3464C136.956 18.5398 137.159 17.8695 137.565 17.3354C137.971 16.8014 138.514 16.4037 139.193 16.1422C139.871 15.8808 140.622 15.7528 141.445 15.7584C142.274 15.7695 143.014 15.9114 143.665 16.1839C144.316 16.4565 144.861 16.8543 145.301 17.3772C145.74 17.8945 146.057 18.5287 146.252 19.2796L143.799 19.6969C143.71 19.3075 143.545 18.9793 143.306 18.7122C143.067 18.4452 142.781 18.2422 142.447 18.1031C142.119 17.964 141.774 17.8889 141.412 17.8778C141.056 17.8667 140.72 17.9168 140.402 18.028C140.091 18.1337 139.835 18.2895 139.635 18.4953C139.44 18.7011 139.343 18.9459 139.343 19.2296C139.343 19.491 139.423 19.7052 139.585 19.8721C139.746 20.0334 139.949 20.1641 140.194 20.2643C140.439 20.3644 140.689 20.4478 140.945 20.5146L143.031 21.082C143.342 21.1654 143.687 21.2767 144.066 21.4158C144.444 21.5493 144.805 21.7384 145.15 21.9832C145.501 22.2224 145.787 22.5395 146.01 22.9344C146.238 23.3294 146.352 23.83 146.352 24.4364C146.352 25.0817 146.216 25.6463 145.943 26.1303C145.676 26.6087 145.314 27.0064 144.858 27.3235C144.402 27.635 143.885 27.8686 143.306 28.0244C142.733 28.1802 142.141 28.258 141.529 28.258Z"
                            fill="#FEFEFE" />
                    </svg>