<svg width="56" height="56" viewBox="0 0 56 56" fill="none" xmlns="http://www.w3.org/2000/svg">
<path d="M28.0201 36.5299C25.6901 36.5299 23.3601 36.1599 21.1501 35.4199C20.3101 35.1299 19.6701 34.5399 19.3901 33.7699C19.1001 32.9999 19.2001 32.1499 19.6601 31.3899L20.8101 29.4799C21.0501 29.0799 21.2701 28.2799 21.2701 27.8099V24.9199C21.2701 21.1999 24.3001 18.1699 28.0201 18.1699C31.7401 18.1699 34.7701 21.1999 34.7701 24.9199V27.8099C34.7701 28.2699 34.9901 29.0799 35.2301 29.4899L36.3701 31.3899C36.8001 32.1099 36.8801 32.9799 36.5901 33.7699C36.3001 34.5599 35.6701 35.1599 34.8801 35.4199C32.6801 36.1599 30.3501 36.5299 28.0201 36.5299ZM28.0201 19.6699C25.1301 19.6699 22.7701 22.0199 22.7701 24.9199V27.8099C22.7701 28.5399 22.4701 29.6199 22.1001 30.2499L20.9501 32.1599C20.7301 32.5299 20.6701 32.9199 20.8001 33.2499C20.9201 33.5899 21.2201 33.8499 21.6301 33.9899C25.8101 35.3899 30.2401 35.3899 34.4201 33.9899C34.7801 33.8699 35.0601 33.5999 35.1901 33.2399C35.3201 32.8799 35.2901 32.4899 35.0901 32.1599L33.9401 30.2499C33.5601 29.5999 33.2701 28.5299 33.2701 27.7999V24.9199C33.2701 22.0199 30.9201 19.6699 28.0201 19.6699Z" fill="#0C0C0C"/>
<path d="M29.8801 19.9399C29.8101 19.9399 29.7401 19.9299 29.6701 19.9099C29.3801 19.8299 29.1001 19.7699 28.8301 19.7299C27.9801 19.6199 27.1601 19.6799 26.3901 19.9099C26.1101 19.9999 25.8101 19.9099 25.6201 19.6999C25.4301 19.4899 25.3701 19.1899 25.4801 18.9199C25.8901 17.8699 26.8901 17.1799 28.0301 17.1799C29.1701 17.1799 30.1701 17.8599 30.5801 18.9199C30.6801 19.1899 30.6301 19.4899 30.4401 19.6999C30.2901 19.8599 30.0801 19.9399 29.8801 19.9399Z" fill="#0C0C0C"/>
<path d="M28.02 38.8101C27.03 38.8101 26.07 38.4101 25.37 37.7101C24.67 37.0101 24.27 36.0501 24.27 35.0601H25.77C25.77 35.6501 26.01 36.2301 26.43 36.6501C26.85 37.0701 27.43 37.3101 28.02 37.3101C29.26 37.3101 30.27 36.3001 30.27 35.0601H31.77C31.77 37.1301 30.09 38.8101 28.02 38.8101Z" fill="#0C0C0C"/>
</svg>
