<svg width="22" height="21" viewBox="0 0 22 21" fill="none"
                                xmlns="http://www.w3.org/2000/svg">
                                <path
                                    d="M19 9C19 6.87827 18.1571 4.84344 16.6569 3.34315C15.1566 1.84285 13.1217 1 11 1C8.87827 1 6.84344 1.84285 5.34315 3.34315C3.84285 4.84344 3 6.87827 3 9"
                                    stroke="#0855A2" stroke-width="2" stroke-linecap="round" stroke-linejoin="round" />
                                <path
                                    d="M19 16V16.5C19 17.0304 18.7893 17.5391 18.4142 17.9142C18.0391 18.2893 17.5304 18.5 17 18.5H13.5M1 13.438V11.562C1.00007 11.116 1.1492 10.6828 1.4237 10.3313C1.69821 9.97982 2.08232 9.73015 2.515 9.622L4.255 9.186C4.34342 9.16398 4.43569 9.16238 4.52481 9.18134C4.61393 9.20029 4.69757 9.23929 4.76937 9.29539C4.84118 9.35148 4.89926 9.42319 4.93922 9.50508C4.97918 9.58697 4.99997 9.67688 5 9.768V15.231C5.00016 15.3223 4.97947 15.4124 4.93952 15.4946C4.89957 15.5767 4.84141 15.6486 4.76946 15.7048C4.69752 15.761 4.61369 15.8001 4.52436 15.819C4.43503 15.8379 4.34257 15.8362 4.254 15.814L2.514 15.379C2.08151 15.2707 1.69762 15.0209 1.42331 14.6694C1.149 14.3179 1.00001 13.8849 1 13.439V13.438ZM21 13.438V11.562C20.9999 11.116 20.8508 10.6828 20.5763 10.3313C20.3018 9.97982 19.9177 9.73015 19.485 9.622L17.745 9.186C17.6566 9.16398 17.5643 9.16238 17.4752 9.18134C17.3861 9.20029 17.3024 9.23929 17.2306 9.29539C17.1588 9.35148 17.1007 9.42319 17.0608 9.50508C17.0208 9.58697 17 9.67688 17 9.768V15.231C16.9999 15.3222 17.0206 15.4122 17.0604 15.4942C17.1003 15.5763 17.1584 15.6481 17.2302 15.7043C17.3021 15.7605 17.3857 15.7996 17.4749 15.8186C17.5641 15.8376 17.6565 15.836 17.745 15.814L19.485 15.379C19.9177 15.2708 20.3018 15.0212 20.5763 14.6697C20.8508 14.3182 20.9999 13.885 21 13.439V13.438Z"
                                    stroke="#0855A2" stroke-width="2" />
                                <path
                                    d="M12.5 20H9.5C9.10218 20 8.72064 19.842 8.43934 19.5607C8.15804 19.2794 8 18.8978 8 18.5C8 18.1022 8.15804 17.7206 8.43934 17.4393C8.72064 17.158 9.10218 17 9.5 17H12.5C12.8978 17 13.2794 17.158 13.5607 17.4393C13.842 17.7206 14 18.1022 14 18.5C14 18.8978 13.842 19.2794 13.5607 19.5607C13.2794 19.842 12.8978 20 12.5 20Z"
                                    stroke="#0855A2" stroke-width="2" />
                            </svg>