<svg width="32" height="32" viewBox="0 0 32 32" fill="none" xmlns="http://www.w3.org/2000/svg">
                    <path
                        d="M32 5.99976V25.9998C32 27.1348 31.135 27.9998 30 27.9998H28V9.84876L16 18.4688L4 9.84876V27.9998H2C0.865 27.9998 0 27.1348 0 25.9998V5.99976C0 5.43176 0.214 4.93176 0.573 4.57776C0.759973 4.39069 0.98265 4.24312 1.22779 4.14383C1.47294 4.04453 1.73554 3.99554 2 3.99976H2.667L16 13.6668L29.333 3.99976H30C30.568 3.99976 31.068 4.21376 31.427 4.57776C31.786 4.93176 32 5.43176 32 5.99976Z"
                        fill="#FEFEFE" />
                </svg>