<svg width="32" height="32" viewBox="0 0 32 32" fill="none" xmlns="http://www.w3.org/2000/svg">
                    <path
                        d="M15.9983 9.83594C14.3632 9.83594 12.795 10.4855 11.6388 11.6417C10.4826 12.7979 9.83301 14.3661 9.83301 16.0013C9.83301 17.6364 10.4826 19.2046 11.6388 20.3608C12.795 21.517 14.3632 22.1666 15.9983 22.1666C17.6335 22.1666 19.2017 21.517 20.3579 20.3608C21.5141 19.2046 22.1637 17.6364 22.1637 16.0013C22.1637 14.3661 21.5141 12.7979 20.3579 11.6417C19.2017 10.4855 17.6335 9.83594 15.9983 9.83594ZM15.9983 20.0053C14.9361 20.0053 13.9173 19.5833 13.1661 18.8321C12.415 18.081 11.993 17.0622 11.993 15.9999C11.993 14.9377 12.415 13.9189 13.1661 13.1677C13.9173 12.4166 14.9361 11.9946 15.9983 11.9946C17.0606 11.9946 18.0794 12.4166 18.8305 13.1677C19.5817 13.9189 20.0037 14.9377 20.0037 15.9999C20.0037 17.0622 19.5817 18.081 18.8305 18.8321C18.0794 19.5833 17.0606 20.0053 15.9983 20.0053Z"
                        fill="#FEFEFE" />
                    <path
                        d="M22.408 11.0465C23.2019 11.0465 23.8454 10.403 23.8454 9.60921C23.8454 8.81539 23.2019 8.17188 22.408 8.17188C21.6142 8.17188 20.9707 8.81539 20.9707 9.60921C20.9707 10.403 21.6142 11.0465 22.408 11.0465Z"
                        fill="#FEFEFE" />
                    <path
                        d="M27.3776 8.14817C27.0689 7.35108 26.5972 6.62721 25.9927 6.02291C25.3882 5.41862 24.6641 4.9472 23.8669 4.63884C22.934 4.28865 21.9485 4.09929 20.9523 4.07884C19.6683 4.02284 19.2616 4.00684 16.0056 4.00684C12.7496 4.00684 12.3323 4.00684 11.0589 4.07884C10.0634 4.09824 9.07861 4.28764 8.14693 4.63884C7.34951 4.94684 6.62528 5.41813 6.02071 6.02247C5.41613 6.62682 4.94457 7.35087 4.63626 8.14817C4.286 9.08099 4.09708 10.0666 4.0776 11.0628C4.02026 12.3455 4.00293 12.7522 4.00293 16.0095C4.00293 19.2655 4.00293 19.6802 4.0776 20.9562C4.0976 21.9535 4.2856 22.9375 4.63626 23.8722C4.94543 24.6692 5.41746 25.3929 6.02218 25.9972C6.6269 26.6015 7.35101 27.0729 8.14826 27.3815C9.07817 27.7458 10.0634 27.9487 11.0616 27.9815C12.3456 28.0375 12.7523 28.0548 16.0083 28.0548C19.2643 28.0548 19.6816 28.0548 20.9549 27.9815C21.9511 27.9612 22.9366 27.7723 23.8696 27.4228C24.6666 27.1138 25.3904 26.6419 25.9949 26.0375C26.5994 25.433 27.0712 24.7092 27.3803 23.9122C27.7309 22.9788 27.9189 21.9948 27.9389 20.9975C27.9963 19.7148 28.0136 19.3082 28.0136 16.0508C28.0136 12.7935 28.0136 12.3802 27.9389 11.1042C27.9234 10.0939 27.7335 9.09383 27.3776 8.14817ZM25.7536 20.8575C25.745 21.6259 25.6047 22.3872 25.3389 23.1082C25.1387 23.6267 24.8322 24.0975 24.439 24.4904C24.0459 24.8833 23.5749 25.1896 23.0563 25.3895C22.3432 25.6541 21.5901 25.7944 20.8296 25.8042C19.5629 25.8628 19.2056 25.8775 15.9576 25.8775C12.7069 25.8775 12.3749 25.8775 11.0843 25.8042C10.3242 25.7949 9.57136 25.6546 8.85893 25.3895C8.33851 25.1908 7.8656 24.8851 7.47078 24.4921C7.07597 24.0991 6.76804 23.6277 6.56693 23.1082C6.30486 22.3949 6.16468 21.6426 6.15226 20.8828C6.09493 19.6162 6.0816 19.2588 6.0816 16.0108C6.0816 12.7615 6.0816 12.4295 6.15226 11.1375C6.16088 10.3695 6.30114 9.60873 6.56693 8.88817C6.9736 7.83617 7.80693 7.00817 8.85893 6.6055C9.57172 6.34169 10.3243 6.20145 11.0843 6.19084C12.3523 6.1335 12.7083 6.1175 15.9576 6.1175C19.2069 6.1175 19.5403 6.1175 20.8296 6.19084C21.5901 6.19999 22.3434 6.34026 23.0563 6.6055C23.5748 6.80587 24.0458 7.11244 24.4389 7.50554C24.832 7.89865 25.1386 8.3696 25.3389 8.88817C25.601 9.60143 25.7412 10.3537 25.7536 11.1135C25.8109 12.3815 25.8256 12.7375 25.8256 15.9868C25.8256 19.2348 25.8256 19.5842 25.7683 20.8588H25.7536V20.8575Z"
                        fill="#FEFEFE" />
                </svg>