<svg width="25" height="25" viewBox="0 0 25 25" fill="none" xmlns="http://www.w3.org/2000/svg">
<path d="M3.35382 4.45868C3.04873 4.15358 3.04873 3.65892 3.35382 3.35382C3.65892 3.04873 4.15358 3.04873 4.45868 3.35382L12.5 11.3951L20.5413 3.35382C20.8464 3.04873 21.3411 3.04873 21.6462 3.35382C21.9513 3.65892 21.9513 4.15358 21.6462 4.45868L13.6049 12.5L21.6462 20.5413C21.9513 20.8464 21.9513 21.3411 21.6462 21.6462C21.3411 21.9513 20.8464 21.9513 20.5413 21.6462L12.5 13.6049L4.45868 21.6462C4.15358 21.9513 3.65892 21.9513 3.35382 21.6462C3.04873 21.3411 3.04873 20.8464 3.35382 20.5413L11.3951 12.5L3.35382 4.45868Z" fill="black"/>
</svg>
