<svg width="76" height="78" viewBox="0 0 76 78" fill="none" xmlns="http://www.w3.org/2000/svg">
<g filter="url(#filter0_d_2574_7449)">
<rect x="4" width="68" height="70" rx="10" fill="white" shape-rendering="crispEdges"/>
<path d="M24.9155 49.9709L35.7997 37.1443C36.4532 36.3743 36.7799 35.9893 37.1566 35.845C37.488 35.7181 37.845 35.7181 38.1764 35.845C38.5531 35.9893 38.8798 36.3743 39.5333 37.1443L50.345 49.8854M40.9665 38.8333L45.6997 33.2554C46.3532 32.4854 46.6799 32.1004 47.0566 31.9561C47.388 31.8292 47.745 31.8292 48.0764 31.9561C48.4531 32.1004 48.7798 32.4854 49.4333 33.2554L54.1665 38.8333M34.3665 27.1667C34.3665 29.3144 32.889 31.0556 31.0665 31.0556C29.244 31.0556 27.7665 29.3144 27.7665 27.1667C27.7665 25.0189 29.244 23.2778 31.0665 23.2778C32.889 23.2778 34.3665 25.0189 34.3665 27.1667ZM29.0865 50.5H46.2465C49.0188 50.5 50.4049 50.5 51.4638 49.8642C52.3952 49.3049 53.1524 48.4126 53.627 47.3149C54.1665 46.0671 54.1665 44.4336 54.1665 41.1667V24.8333C54.1665 21.5664 54.1665 19.9329 53.627 18.6851C53.1524 17.5874 52.3952 16.6951 51.4638 16.1358C50.4049 15.5 49.0188 15.5 46.2465 15.5H29.0865C26.3142 15.5 24.9281 15.5 23.8693 16.1358C22.9378 16.6951 22.1806 17.5874 21.706 18.6851C21.1665 19.9329 21.1665 21.5664 21.1665 24.8333V41.1667C21.1665 44.4336 21.1665 46.0671 21.706 47.3149C22.1806 48.4126 22.9378 49.3049 23.8693 49.8642C24.9281 50.5 26.3142 50.5 29.0865 50.5Z" stroke="#0A66C2" stroke-width="2" stroke-linecap="round" stroke-linejoin="round"/>
<rect x="4.5" y="0.5" width="67" height="69" rx="9.5" stroke="#0A66C2" shape-rendering="crispEdges"/>
</g>
<defs>
<filter id="filter0_d_2574_7449" x="0" y="0" width="76" height="78" filterUnits="userSpaceOnUse" color-interpolation-filters="sRGB">
<feFlood flood-opacity="0" result="BackgroundImageFix"/>
<feColorMatrix in="SourceAlpha" type="matrix" values="0 0 0 0 0 0 0 0 0 0 0 0 0 0 0 0 0 0 127 0" result="hardAlpha"/>
<feOffset dy="4"/>
<feGaussianBlur stdDeviation="2"/>
<feComposite in2="hardAlpha" operator="out"/>
<feColorMatrix type="matrix" values="0 0 0 0 0 0 0 0 0 0 0 0 0 0 0 0 0 0 0.25 0"/>
<feBlend mode="normal" in2="BackgroundImageFix" result="effect1_dropShadow_2574_7449"/>
<feBlend mode="normal" in="SourceGraphic" in2="effect1_dropShadow_2574_7449" result="shape"/>
</filter>
</defs>
</svg>
