<svg width="87" height="87" viewBox="0 0 87 87" fill="none" xmlns="http://www.w3.org/2000/svg">
<path d="M58 58C58 58 52.5625 50.75 43.5 50.75C34.4375 50.75 29 58 29 58M61.625 33.495C60.1931 35.2531 58.2356 36.25 56.1875 36.25C54.1394 36.25 52.2362 35.2531 50.75 33.495M36.25 33.495C34.8181 35.2531 32.8606 36.25 30.8125 36.25C28.7644 36.25 26.8612 35.2531 25.375 33.495M79.75 43.5C79.75 63.5203 63.5203 79.75 43.5 79.75C23.4797 79.75 7.25 63.5203 7.25 43.5C7.25 23.4797 23.4797 7.25 43.5 7.25C63.5203 7.25 79.75 23.4797 79.75 43.5Z" stroke="#FF4040" stroke-width="2" stroke-linecap="round" stroke-linejoin="round"/>
</svg>
