<svg width="136" height="24" viewBox="0 0 136 24" fill="none" xmlns="http://www.w3.org/2000/svg">
<path d="M7.47998 18.35L10.58 20.75C10.98 21.15 11.88 21.35 12.48 21.35H16.28C17.48 21.35 18.78 20.45 19.08 19.25L21.48 11.95C21.98 10.55 21.08 9.34997 19.58 9.34997H15.58C14.98 9.34997 14.48 8.84997 14.58 8.14997L15.08 4.94997C15.28 4.04997 14.68 3.04997 13.78 2.74997C12.98 2.44997 11.98 2.84997 11.58 3.44997L7.47998 9.54997" stroke="#0C0C0C" stroke-width="1.5" stroke-miterlimit="10"/>
<path d="M2.37988 18.3499V8.5499C2.37988 7.1499 2.97988 6.6499 4.37988 6.6499H5.37988C6.77988 6.6499 7.37988 7.1499 7.37988 8.5499V18.3499C7.37988 19.7499 6.77988 20.2499 5.37988 20.2499H4.37988C2.97988 20.2499 2.37988 19.7499 2.37988 18.3499Z" stroke="#0C0C0C" stroke-width="1.5" stroke-linecap="round" stroke-linejoin="round"/>
<path d="M31.689 17.703C31.1897 17.703 30.73 17.6143 30.31 17.437C29.89 17.2597 29.5283 17.0077 29.225 16.681C28.9217 16.3497 28.7 15.9553 28.56 15.498L29.54 15.204C29.708 15.7033 29.9833 16.0813 30.366 16.338C30.7533 16.5947 31.1897 16.7183 31.675 16.709C32.123 16.6997 32.508 16.5993 32.83 16.408C33.1567 16.2167 33.4063 15.9507 33.579 15.61C33.7517 15.2693 33.838 14.875 33.838 14.427C33.838 13.741 33.6373 13.1903 33.236 12.775C32.8393 12.355 32.3143 12.145 31.661 12.145C31.479 12.145 31.2877 12.1707 31.087 12.222C30.8863 12.2687 30.6997 12.3363 30.527 12.425L30.009 11.606L33.929 7.987L34.097 8.407H28.959V7.42H34.783V8.421L31.367 11.683L31.353 11.277C32.053 11.1883 32.669 11.2677 33.201 11.515C33.733 11.7623 34.1483 12.1403 34.447 12.649C34.7503 13.153 34.902 13.7457 34.902 14.427C34.902 15.071 34.762 15.6403 34.482 16.135C34.2067 16.625 33.8263 17.01 33.341 17.29C32.8557 17.5653 32.305 17.703 31.689 17.703ZM36.4383 17.493L36.4453 16.555L41.0023 12.439C41.3943 12.0843 41.6533 11.7483 41.7793 11.431C41.9099 11.109 41.9753 10.773 41.9753 10.423C41.9753 10.0077 41.8773 9.632 41.6813 9.296C41.4853 8.96 41.2216 8.694 40.8903 8.498C40.5589 8.29733 40.1879 8.197 39.7773 8.197C39.3479 8.197 38.9653 8.29967 38.6293 8.505C38.2933 8.71033 38.0273 8.981 37.8313 9.317C37.6399 9.653 37.5466 10.0193 37.5513 10.416H36.5013C36.5013 9.80467 36.6459 9.25633 36.9353 8.771C37.2246 8.28567 37.6166 7.90533 38.1113 7.63C38.6059 7.35 39.1659 7.21 39.7913 7.21C40.4026 7.21 40.9509 7.35467 41.4363 7.644C41.9263 7.92867 42.3113 8.316 42.5913 8.806C42.8759 9.29133 43.0183 9.83267 43.0183 10.43C43.0183 10.85 42.9669 11.221 42.8643 11.543C42.7663 11.8603 42.6099 12.1567 42.3953 12.432C42.1853 12.7027 41.9169 12.9827 41.5903 13.272L37.5443 16.926L37.3833 16.506H43.0183V17.493H36.4383Z" fill="#0C0C0C"/>
<path d="M68.5 19H68C64 19 62 18 62 13V8C62 4 64 2 68 2H76C80 2 82 4 82 8V13C82 17 80 19 76 19H75.5C75.19 19 74.89 19.15 74.7 19.4L73.2 21.4C72.54 22.28 71.46 22.28 70.8 21.4L69.3 19.4C69.14 19.18 68.77 19 68.5 19Z" stroke="#0C0C0C" stroke-width="1.5" stroke-miterlimit="10" stroke-linecap="round" stroke-linejoin="round"/>
<path d="M67 8H77" stroke="#0C0C0C" stroke-width="1.5" stroke-linecap="round" stroke-linejoin="round"/>
<path d="M67 13H73" stroke="#0C0C0C" stroke-width="1.5" stroke-linecap="round" stroke-linejoin="round"/>
<path d="M91.689 17.703C91.1897 17.703 90.73 17.6143 90.31 17.437C89.89 17.2597 89.5283 17.0077 89.225 16.681C88.9217 16.3497 88.7 15.9553 88.56 15.498L89.54 15.204C89.708 15.7033 89.9833 16.0813 90.366 16.338C90.7533 16.5947 91.1897 16.7183 91.675 16.709C92.123 16.6997 92.508 16.5993 92.83 16.408C93.1567 16.2167 93.4063 15.9507 93.579 15.61C93.7517 15.2693 93.838 14.875 93.838 14.427C93.838 13.741 93.6373 13.1903 93.236 12.775C92.8393 12.355 92.3143 12.145 91.661 12.145C91.479 12.145 91.2877 12.1707 91.087 12.222C90.8863 12.2687 90.6997 12.3363 90.527 12.425L90.009 11.606L93.929 7.987L94.097 8.407H88.959V7.42H94.783V8.421L91.367 11.683L91.353 11.277C92.053 11.1883 92.669 11.2677 93.201 11.515C93.733 11.7623 94.1483 12.1403 94.447 12.649C94.7503 13.153 94.902 13.7457 94.902 14.427C94.902 15.071 94.762 15.6403 94.482 16.135C94.2067 16.625 93.8263 17.01 93.341 17.29C92.8557 17.5653 92.305 17.703 91.689 17.703Z" fill="#0C0C0C"/>
<path d="M124.89 5.87988H117.11C115.4 5.87988 114 7.27987 114 8.98987V20.3499C114 21.7999 115.04 22.4199 116.31 21.7099L120.24 19.5199C120.66 19.2899 121.34 19.2899 121.75 19.5199L125.68 21.7099C126.95 22.4199 127.99 21.7999 127.99 20.3499V8.98987C128 7.27987 126.6 5.87988 124.89 5.87988Z" stroke="#0C0C0C" stroke-width="1.5" stroke-linecap="round" stroke-linejoin="round"/>
<path d="M128 8.98987V20.3499C128 21.7999 126.96 22.4099 125.69 21.7099L121.76 19.5199C121.34 19.2899 120.66 19.2899 120.24 19.5199L116.31 21.7099C115.04 22.4099 114 21.7999 114 20.3499V8.98987C114 7.27987 115.4 5.87988 117.11 5.87988H124.89C126.6 5.87988 128 7.27987 128 8.98987Z" stroke="#0C0C0C" stroke-width="1.5" stroke-linecap="round" stroke-linejoin="round"/>
<path d="M134 5.10999V16.47C134 17.92 132.96 18.53 131.69 17.83L128 15.77V8.98999C128 7.27999 126.6 5.88 124.89 5.88H120V5.10999C120 3.39999 121.4 2 123.11 2H130.89C132.6 2 134 3.39999 134 5.10999Z" stroke="#0C0C0C" stroke-width="1.5" stroke-linecap="round" stroke-linejoin="round"/>
</svg>
