<svg width="32" height="32" viewBox="0 0 32 32" fill="none" xmlns="http://www.w3.org/2000/svg">
                    <path
                        d="M26.4906 3.5H5.50938C4.4 3.5 3.5 4.4 3.5 5.50938V26.4906C3.5 27.6 4.4 28.5 5.50938 28.5H26.4906C27.6 28.5 28.5 27.6 28.5 26.4906V5.50938C28.5 4.4 27.6 3.5 26.4906 3.5ZM26.4906 26.5C12.4969 26.4969 5.5 26.4937 5.5 26.4906C5.50312 12.4969 5.50625 5.5 5.50938 5.5C19.5031 5.50312 26.5 5.50625 26.5 5.50938C26.4969 19.5031 26.4937 26.5 26.4906 26.5ZM7.20625 12.8719H10.9156V24.8031H7.20625V12.8719ZM9.0625 11.2406C10.2469 11.2406 11.2125 10.2781 11.2125 9.09062C11.2125 8.80828 11.1569 8.52871 11.0488 8.26786C10.9408 8.00701 10.7824 7.76999 10.5828 7.57035C10.3831 7.3707 10.1461 7.21233 9.88527 7.10428C9.62442 6.99624 9.34484 6.94063 9.0625 6.94063C8.78016 6.94063 8.50058 6.99624 8.23973 7.10428C7.97888 7.21233 7.74187 7.3707 7.54222 7.57035C7.34257 7.76999 7.18421 8.00701 7.07616 8.26786C6.96811 8.52871 6.9125 8.80828 6.9125 9.09062C6.90937 10.2781 7.87187 11.2406 9.0625 11.2406ZM16.9469 18.9C16.9469 17.3438 17.2437 15.8375 19.1719 15.8375C21.0719 15.8375 21.1 17.6156 21.1 19V24.8031H24.8062V18.2594C24.8062 15.0469 24.1125 12.575 20.3594 12.575C18.5562 12.575 17.3469 13.5656 16.85 14.5031H16.8V12.8719H13.2406V24.8031H16.9469V18.9Z"
                        fill="#FEFEFE" />
                </svg>