<svg width="214" height="64" viewBox="0 0 214 64" fill="none" xmlns="http://www.w3.org/2000/svg">
<path fill-rule="evenodd" clip-rule="evenodd" d="M63.3372 0H0V63.3372H63.3372V0ZM4.87209 58.4651V4.87209H58.4651V58.4651H4.87209ZM12.5701 19.7807C12.4095 19.6602 12.1803 19.7748 12.1803 19.9755V43.6052C12.1803 43.7397 12.2894 43.8488 12.4239 43.8488H16.8088C16.9433 43.8488 17.0524 43.7397 17.0524 43.6052V29.7197C17.0524 29.519 17.2816 29.4044 17.4422 29.5248L24.2144 34.604C24.301 34.669 24.4201 34.669 24.5067 34.604L31.2789 29.5248C31.4395 29.4044 31.6687 29.519 31.6687 29.7197V43.6052C31.6687 43.7397 31.7777 43.8488 31.9123 43.8488H41.4128C48.1398 43.8488 53.5931 38.3955 53.5931 31.6686C53.5931 24.9416 48.1398 19.4883 41.4128 19.4883H36.5407L24.5067 28.5139C24.4201 28.5788 24.301 28.5788 24.2144 28.5139L12.5701 19.7807ZM36.5407 38.7331V24.1168C36.5407 24.2514 36.6498 24.3604 36.7844 24.3604H41.4128C45.449 24.3604 48.721 27.6324 48.721 31.6686C48.721 35.7047 45.449 38.9767 41.4128 38.9767H36.7844C36.6498 38.9767 36.5407 38.8676 36.5407 38.7331Z" fill="#0A66C2"/>
<path d="M73.1543 40.4384V22.8989H76.1263L81.9241 34.5431L87.7218 22.8989H90.6938V40.4384H87.6V29.9634L82.5087 40.4384H81.3394L76.2481 29.9634V40.4384H73.1543Z" fill="#0A66C2"/>
<path d="M96.9387 40.4384V33.3008L90.946 22.8989H94.8193L98.6195 29.5005L102.42 22.8989H106.293L100.3 33.3008V40.4384H96.9387Z" fill="#0A66C2"/>
<path d="M112.389 40.4384V22.8989H118.065C118.203 22.8989 118.487 22.9029 118.917 22.911C119.348 22.9192 119.762 22.9476 120.16 22.9963C121.573 23.1668 122.771 23.6581 123.753 24.4701C124.736 25.2821 125.483 26.3134 125.994 27.5639C126.506 28.8144 126.762 30.1826 126.762 31.6686C126.762 33.1546 126.506 34.5228 125.994 35.7734C125.483 37.0239 124.736 38.0551 123.753 38.8671C122.771 39.6791 121.573 40.1704 120.16 40.3409C119.762 40.3897 119.348 40.4181 118.917 40.4262C118.487 40.4343 118.203 40.4384 118.065 40.4384H112.389ZM115.751 37.3202H118.065C118.284 37.3202 118.581 37.3162 118.954 37.3081C119.328 37.2918 119.665 37.2553 119.965 37.1984C120.728 37.0442 121.349 36.6869 121.829 36.1266C122.316 35.5663 122.673 34.8923 122.9 34.1047C123.136 33.317 123.254 32.505 123.254 31.6686C123.254 30.7916 123.132 29.9593 122.888 29.1717C122.653 28.384 122.291 27.7182 121.804 27.1741C121.317 26.6301 120.704 26.285 119.965 26.1388C119.665 26.0738 119.328 26.0373 118.954 26.0292C118.581 26.0211 118.284 26.017 118.065 26.017H115.751V37.3202Z" fill="#0A66C2"/>
<path d="M128.222 40.4384V22.8989H139.672V25.9926H131.535V29.7441H138.21V32.8379H131.535V37.3446H139.672V40.4384H128.222Z" fill="#0A66C2"/>
<path d="M141.129 40.4384V22.8989H148.145C149.396 22.8989 150.407 23.1506 151.178 23.654C151.95 24.1494 152.514 24.7746 152.871 25.5298C153.228 26.285 153.407 27.0483 153.407 27.8197C153.407 28.8022 153.184 29.6183 152.737 30.2679C152.299 30.9175 151.694 31.3519 150.922 31.5712V30.9622C152.019 31.1895 152.839 31.697 153.383 32.4847C153.935 33.2723 154.211 34.1534 154.211 35.1278C154.211 36.1753 154.016 37.0969 153.626 37.8927C153.245 38.6885 152.66 39.3137 151.872 39.7685C151.085 40.2151 150.094 40.4384 148.9 40.4384H141.129ZM144.491 37.3202H148.559C149.006 37.3202 149.404 37.2269 149.753 37.0401C150.102 36.8452 150.374 36.5772 150.569 36.2362C150.772 35.887 150.874 35.477 150.874 35.006C150.874 34.5919 150.788 34.2224 150.618 33.8976C150.447 33.5728 150.187 33.317 149.838 33.1302C149.497 32.9354 149.071 32.8379 148.559 32.8379H144.491V37.3202ZM144.491 29.7441H148.097C148.47 29.7441 148.803 29.6792 149.095 29.5493C149.388 29.4193 149.619 29.2204 149.79 28.9524C149.96 28.6763 150.045 28.3231 150.045 27.8927C150.045 27.3568 149.879 26.9061 149.546 26.5407C149.213 26.1753 148.73 25.9926 148.097 25.9926H144.491V29.7441Z" fill="#0A66C2"/>
<path d="M158.771 40.4384V25.9926H153.241V22.8989H167.614V25.9926H162.084V40.4384H158.771Z" fill="#0A66C2"/>
<path d="M175.637 40.8038C173.883 40.8038 172.369 40.4221 171.094 39.6588C169.827 38.8955 168.849 37.8277 168.158 36.4554C167.476 35.0831 167.135 33.4875 167.135 31.6686C167.135 29.8497 167.476 28.2541 168.158 26.8818C168.849 25.5095 169.827 24.4417 171.094 23.6784C172.369 22.9151 173.883 22.5334 175.637 22.5334C177.391 22.5334 178.901 22.9151 180.168 23.6784C181.443 24.4417 182.421 25.5095 183.103 26.8818C183.794 28.2541 184.139 29.8497 184.139 31.6686C184.139 33.4875 183.794 35.0831 183.103 36.4554C182.421 37.8277 181.443 38.8955 180.168 39.6588C178.901 40.4221 177.391 40.8038 175.637 40.8038ZM175.637 37.6856C176.749 37.7019 177.675 37.4623 178.414 36.967C179.153 36.4717 179.705 35.7693 180.071 34.8598C180.444 33.9504 180.631 32.8866 180.631 31.6686C180.631 30.4506 180.444 29.395 180.071 28.5018C179.705 27.6085 179.153 26.9143 178.414 26.4189C177.675 25.9236 176.749 25.6678 175.637 25.6516C174.525 25.6353 173.599 25.8749 172.86 26.3702C172.121 26.8655 171.565 27.5679 171.191 28.4774C170.826 29.3869 170.643 30.4506 170.643 31.6686C170.643 32.8866 170.826 33.9423 171.191 34.8355C171.565 35.7287 172.121 36.423 172.86 36.9183C173.599 37.4136 174.525 37.6694 175.637 37.6856Z" fill="#0A66C2"/>
<path d="M185.109 40.4384V22.8989H192.514C192.685 22.8989 192.912 22.907 193.196 22.9232C193.489 22.9313 193.748 22.9557 193.976 22.9963C195.023 23.1587 195.88 23.5038 196.546 24.0316C197.22 24.5594 197.715 25.2253 198.032 26.0292C198.349 26.8249 198.507 27.7141 198.507 28.6966C198.507 30.1664 198.141 31.425 197.411 32.4725C196.68 33.5119 195.535 34.1534 193.976 34.397L192.514 34.4944H188.422V40.4384H185.109ZM194.999 40.4384L191.54 33.3008L194.95 32.643L198.75 40.4384H194.999ZM188.422 31.4007H192.368C192.539 31.4007 192.725 31.3925 192.928 31.3763C193.131 31.36 193.318 31.3276 193.489 31.2788C193.935 31.157 194.28 30.954 194.524 30.6698C194.768 30.3775 194.934 30.0568 195.023 29.7076C195.121 29.3503 195.17 29.0133 195.17 28.6966C195.17 28.38 195.121 28.047 195.023 27.6979C194.934 27.3406 194.768 27.0198 194.524 26.7356C194.28 26.4433 193.935 26.2362 193.489 26.1144C193.318 26.0657 193.131 26.0332 192.928 26.017C192.725 26.0008 192.539 25.9926 192.368 25.9926H188.422V31.4007Z" fill="#0A66C2"/>
<path d="M206.593 40.8038C205.293 40.8038 204.12 40.5764 203.073 40.1217C202.033 39.6588 201.177 39.0011 200.503 38.1485C199.837 37.2878 199.414 36.2646 199.236 35.0791L202.695 34.5675C202.939 35.5744 203.442 36.3499 204.205 36.8939C204.969 37.438 205.837 37.71 206.812 37.71C207.356 37.71 207.884 37.6247 208.395 37.4542C208.907 37.2837 209.325 37.032 209.65 36.699C209.983 36.3661 210.149 35.9561 210.149 35.4688C210.149 35.2902 210.121 35.1197 210.064 34.9573C210.015 34.7868 209.93 34.6284 209.808 34.4822C209.686 34.3361 209.512 34.198 209.284 34.0681C209.065 33.9382 208.785 33.8205 208.444 33.7149L203.889 32.3751C203.548 32.2776 203.15 32.1396 202.695 31.9609C202.248 31.7823 201.814 31.5265 201.392 31.1936C200.969 30.8607 200.616 30.4222 200.332 29.8781C200.056 29.326 199.918 28.6317 199.918 27.7953C199.918 26.6179 200.214 25.6394 200.807 24.8599C201.4 24.0803 202.192 23.4997 203.182 23.1181C204.173 22.7364 205.269 22.5497 206.471 22.5578C207.681 22.574 208.761 22.7811 209.711 23.179C210.661 23.5769 211.457 24.1575 212.098 24.9208C212.74 25.6759 213.202 26.6016 213.487 27.6979L209.906 28.3069C209.776 27.7385 209.536 27.2594 209.187 26.8696C208.838 26.4798 208.42 26.1835 207.932 25.9805C207.453 25.7774 206.95 25.6678 206.422 25.6516C205.902 25.6353 205.411 25.7084 204.948 25.8708C204.494 26.0251 204.12 26.2525 203.828 26.5529C203.544 26.8534 203.401 27.2107 203.401 27.6248C203.401 28.0064 203.519 28.3191 203.755 28.5627C203.99 28.7981 204.287 28.989 204.644 29.1351C205.001 29.2813 205.367 29.4031 205.74 29.5005L208.785 30.3288C209.24 30.4506 209.743 30.613 210.295 30.816C210.848 31.0109 211.375 31.287 211.879 31.6443C212.39 31.9934 212.809 32.4563 213.133 33.0328C213.466 33.6093 213.633 34.3401 213.633 35.2252C213.633 36.1672 213.434 36.9914 213.036 37.6978C212.646 38.3962 212.118 38.9767 211.453 39.4396C210.787 39.8943 210.032 40.2354 209.187 40.4627C208.351 40.6901 207.486 40.8038 206.593 40.8038Z" fill="#0A66C2"/>
</svg>
