<?xml version="1.0" standalone="no"?>
<!DOCTYPE svg PUBLIC "-//W3C//DTD SVG 20010904//EN"
 "http://www.w3.org/TR/2001/REC-SVG-20010904/DTD/svg10.dtd">
<svg version="1.0" xmlns="http://www.w3.org/2000/svg"
 width="118.000000pt" height="107.000000pt" viewBox="0 0 118.000000 107.000000"
 preserveAspectRatio="xMidYMid meet">
<metadata>
Created by potrace 1.10, written by Peter Selinger 2001-2011
</metadata>
<g transform="translate(0.000000,107.000000) scale(0.100000,-0.100000)"
fill="#000000" stroke="none">
<path d="M780 982 c-14 -2 -38 -13 -55 -24 -47 -33 -385 -370 -402 -402 -21
-40 -41 -184 -31 -224 14 -53 53 -66 157 -52 47 7 97 18 111 25 14 8 116 105
227 217 169 170 202 209 208 240 20 109 -107 239 -215 220z m69 -77 c45 -23
81 -72 81 -109 0 -40 -52 -116 -79 -116 -40 0 -161 116 -161 155 0 13 45 57
75 73 27 15 51 15 84 -3z m-194 -136 c10 -31 65 -89 112 -119 l42 -27 -133
-131 c-73 -73 -135 -132 -137 -133 -2 0 -40 -6 -84 -13 -44 -7 -86 -11 -94 -8
-10 4 -12 20 -6 75 3 38 11 81 16 96 10 25 256 281 271 281 4 0 10 -9 13 -21z"/>
<path d="M240 950 c-76 -26 -132 -88 -155 -172 -24 -91 -18 -503 9 -563 43
-96 116 -141 249 -157 121 -14 396 -4 462 16 61 19 119 65 145 115 26 51 42
151 38 236 -3 65 -5 70 -27 73 -34 5 -41 -12 -41 -114 0 -104 -17 -164 -57
-207 -46 -47 -103 -57 -333 -57 -233 0 -288 10 -339 61 -49 49 -56 90 -56 334
0 189 3 227 18 267 36 93 108 128 266 128 82 0 110 13 97 45 -9 24 -203 20
-276 -5z"/>
</g>
</svg>
