<?xml version="1.0" standalone="no"?>
<!DOCTYPE svg PUBLIC "-//W3C//DTD SVG 20010904//EN"
 "http://www.w3.org/TR/2001/REC-SVG-20010904/DTD/svg10.dtd">
<svg version="1.0" xmlns="http://www.w3.org/2000/svg"
 width="216.000000pt" height="92.000000pt" viewBox="0 0 216.000000 92.000000"
 preserveAspectRatio="xMidYMid meet">
<metadata>
Created by potrace 1.10, written by Peter Selinger 2001-2011
</metadata>
<g transform="translate(0.000000,92.000000) scale(0.100000,-0.100000)"
fill="#000000" stroke="none">
<path d="M150 763 c-8 -3 -27 -20 -42 -36 -23 -25 -28 -40 -28 -83 0 -29 5
-56 10 -59 13 -8 13 -48 0 -61 -6 -6 -11 -32 -12 -57 0 -43 5 -54 63 -129 135
-175 178 -216 227 -216 50 0 71 17 154 121 133 167 131 163 130 224 0 29 -6
60 -12 68 -10 12 -8 25 5 63 22 61 15 94 -30 139 -49 49 -122 39 -155 -21 -16
-31 -16 -99 -1 -140 12 -31 15 -26 -49 -103 -19 -24 -37 -43 -41 -43 -4 0 -28
26 -53 57 -45 57 -51 85 -25 119 5 6 8 27 7 47 -3 71 -88 135 -148 110z m93
-55 c22 -27 22 -79 -2 -126 l-19 -37 70 -83 c38 -45 75 -82 82 -82 7 0 41 37
76 81 l63 82 -22 44 c-26 54 -27 83 -1 116 26 32 50 40 84 27 58 -22 65 -103
14 -157 -18 -19 -19 -23 -5 -29 24 -9 47 -66 39 -97 -9 -33 -185 -262 -218
-283 -42 -28 -66 -11 -183 131 -94 116 -111 141 -111 171 0 24 8 43 25 60 l26
25 -26 30 c-36 43 -34 92 5 131 25 24 36 29 58 24 15 -4 35 -16 45 -28z"/>
<path d="M162 678 c-18 -18 -14 -44 11 -74 l23 -27 13 31 c24 58 -10 107 -47
70z"/>
<path d="M522 678 c-16 -16 -15 -33 4 -70 l16 -31 19 24 c25 32 22 83 -6 87
-11 1 -26 -3 -33 -10z"/>
<path d="M162 498 c-7 -7 -12 -20 -12 -29 0 -24 201 -269 221 -269 22 0 209
237 209 266 0 19 -17 44 -30 44 -4 0 -35 -36 -69 -81 -97 -124 -120 -124 -217
-3 -69 85 -80 94 -102 72z m248 -208 c-5 -9 -16 -23 -25 -30 -13 -11 -19 -9
-40 10 -14 13 -25 26 -25 29 0 3 22 6 49 7 44 1 49 -1 41 -16z"/>
<path d="M1548 594 c-9 -8 -217 -17 -294 -12 -29 1 -41 -4 -59 -24 -13 -15
-26 -24 -31 -20 -4 4 -4 -1 -1 -11 4 -10 7 -49 7 -86 0 -90 27 -135 83 -137
20 -1 37 3 37 9 0 5 13 6 33 2 17 -4 80 -9 139 -12 87 -3 112 -1 130 11 28 20
47 20 68 1 15 -13 19 -13 38 5 25 24 45 25 62 5 19 -23 78 -30 114 -12 27 13
36 13 58 1 22 -12 28 -11 38 1 9 10 24 13 49 10 57 -9 63 1 67 108 3 86 1 97
-19 119 -12 14 -35 28 -52 31 -16 3 -39 9 -49 13 -13 5 -17 4 -13 -3 10 -16
-37 -24 -83 -14 -24 5 -56 5 -81 0 -28 -7 -45 -6 -54 1 -16 13 -59 15 -134 4
-39 -5 -52 -4 -47 5 8 12 3 15 -6 5z m-280 -45 c17 -6 38 -22 47 -36 22 -33
23 -105 2 -136 -17 -26 -79 -53 -97 -42 -11 7 -14 207 -3 218 9 9 15 9 51 -4z
m200 -18 c3 -19 -1 -21 -42 -21 -41 0 -46 -2 -46 -23 0 -18 5 -23 23 -23 16 1
22 -5 22 -19 0 -13 -8 -21 -22 -23 -15 -2 -23 -10 -23 -23 0 -16 7 -19 46 -19
41 0 45 -2 42 -21 -3 -19 -10 -22 -56 -22 -29 0 -56 3 -59 7 -8 8 -8 189 -1
202 4 5 30 8 60 8 46 -1 53 -4 56 -23z m267 3 c0 -12 -8 -20 -22 -22 -21 -3
-22 -9 -25 -88 -4 -110 -22 -110 -26 1 -2 76 -5 85 -22 85 -21 0 -34 15 -27
33 3 8 26 12 63 11 51 -1 59 -3 59 -20z m162 -16 c13 -14 18 -36 18 -74 0 -45
-4 -58 -27 -80 -50 -51 -127 -27 -149 46 -33 109 84 190 158 108z m146 14 c14
-13 17 -24 12 -47 -7 -30 -8 -82 -3 -120 2 -11 -4 -21 -14 -23 -13 -2 -19 6
-24 35 -9 49 -11 52 -32 47 -13 -4 -17 -15 -17 -47 0 -31 -4 -42 -15 -42 -12
0 -16 19 -18 99 -1 55 -1 105 1 111 7 16 88 6 110 -13z m-447 0 c16 -24 15
-157 -1 -178 -9 -12 -25 -17 -54 -16 -24 1 -47 4 -52 8 -5 3 -9 50 -9 105 l0
99 53 0 c39 0 55 -4 63 -18z"/>
<path d="M1240 445 c0 -70 11 -82 43 -47 21 23 22 61 1 90 -29 42 -44 28 -44
-43z"/>
<path d="M1786 488 c-45 -64 27 -146 77 -90 10 10 17 32 17 49 0 57 -64 84
-94 41z"/>
<path d="M1960 491 c0 -11 5 -23 10 -26 18 -11 50 6 50 26 0 14 -7 19 -30 19
-23 0 -30 -5 -30 -19z"/>
<path d="M1520 490 c0 -17 5 -21 28 -18 16 2 27 9 27 18 0 9 -11 16 -27 18
-23 3 -28 -1 -28 -18z"/>
<path d="M1520 403 c0 -21 4 -24 28 -21 15 2 27 9 27 17 0 8 -12 18 -27 22
-25 6 -28 5 -28 -18z"/>
<path d="M767 567 c-44 -35 -42 -206 3 -249 17 -16 19 -16 42 5 18 17 33 21
68 19 25 -2 53 -11 63 -19 14 -14 21 -14 41 -4 18 10 28 10 45 1 42 -22 81 14
81 78 0 15 10 47 21 72 11 25 18 54 14 67 -7 31 -39 47 -65 33 -14 -8 -26 -8
-40 0 -39 21 -88 8 -128 -32 -38 -38 -52 -46 -52 -28 0 12 -32 45 -58 59 -14
7 -24 7 -35 -2z m70 -85 l40 -63 49 73 49 73 3 -104 c1 -58 0 -111 -3 -118
-11 -31 -25 2 -25 60 l0 61 -36 -58 -37 -58 -33 53 -34 54 0 -56 c0 -39 -4
-59 -14 -62 -8 -3 -17 -3 -20 0 -8 9 -8 208 1 217 9 8 14 3 60 -72z m283 54
c0 -8 -12 -35 -26 -60 -20 -37 -25 -56 -21 -84 4 -20 3 -43 -2 -51 -15 -24
-31 -1 -31 45 0 28 -9 63 -25 94 -30 59 -31 70 -6 70 12 0 23 -11 30 -30 5
-16 12 -30 14 -30 3 0 14 16 26 36 20 33 41 38 41 10z"/>
</g>
</svg>
