<?xml version="1.0" standalone="no"?>
<!DOCTYPE svg PUBLIC "-//W3C//DTD SVG 20010904//EN"
 "http://www.w3.org/TR/2001/REC-SVG-20010904/DTD/svg10.dtd">
<svg version="1.0" xmlns="http://www.w3.org/2000/svg"
 width="177.000000pt" height="60.000000pt" viewBox="0 0 177.000000 60.000000"
 preserveAspectRatio="xMidYMid meet">
<metadata>
Created by potrace 1.10, written by Peter Selinger 2001-2011
</metadata>
<g transform="translate(0.000000,60.000000) scale(0.100000,-0.100000)"
fill="#000000" stroke="none">
<path d="M190 300 l0 -210 225 0 225 0 0 210 0 210 -225 0 -225 0 0 -210z
m410 3 l0 -178 -185 2 -186 1 -2 176 -2 176 188 0 187 0 0 -177z"/>
<path d="M280 300 c0 -64 3 -80 15 -80 11 0 15 12 15 45 0 49 5 53 37 30 18
-13 22 -13 33 0 25 30 38 17 32 -30 l-5 -45 52 0 c45 0 57 4 82 29 36 36 37
73 4 106 -34 35 -90 34 -141 -4 l-39 -28 -42 29 -43 29 0 -81z m238 38 c7 -7
12 -24 12 -40 0 -29 -23 -48 -59 -48 -18 0 -21 6 -21 50 0 48 1 50 28 50 15 0
33 -5 40 -12z"/>
<path d="M740 299 c0 -44 3 -60 13 -56 7 2 11 16 9 35 -5 42 4 40 24 -5 l16
-38 18 40 19 40 0 -37 c1 -60 20 -44 23 20 l3 57 18 -32 c9 -18 17 -43 17 -58
0 -14 5 -25 10 -25 6 0 10 12 10 28 0 15 9 38 20 52 23 30 25 40 7 40 -8 0
-18 -10 -24 -22 l-10 -23 -12 23 c-19 35 -58 29 -78 -13 -9 -19 -19 -35 -23
-35 -3 0 -12 16 -19 35 -21 58 -41 45 -41 -26z"/>
<path d="M1000 300 c0 -58 1 -60 26 -60 45 0 64 17 64 58 0 47 -14 62 -57 62
l-33 0 0 -60z m68 4 c2 -24 -1 -33 -17 -37 -26 -6 -31 0 -31 40 0 30 3 34 23
31 17 -2 23 -11 25 -34z"/>
<path d="M1110 300 l0 -60 35 0 c25 0 35 4 35 16 0 12 -6 15 -25 10 -21 -5
-25 -3 -25 14 0 17 4 20 20 15 14 -5 20 -2 20 10 0 12 -6 15 -20 10 -14 -5
-20 -2 -20 9 0 10 9 16 25 16 14 0 25 5 25 10 0 6 -16 10 -35 10 l-35 0 0 -60z"/>
<path d="M1190 299 c0 -58 0 -59 28 -59 41 0 70 24 56 47 -14 26 -6 53 17 53
16 0 19 -7 19 -50 0 -27 5 -50 10 -50 6 0 10 23 10 50 0 43 3 50 20 50 11 0
20 4 20 10 0 5 -38 9 -90 9 l-90 0 0 -60z m58 -8 c10 -6 10 -10 -3 -21 -18
-15 -42 0 -31 19 8 13 16 14 34 2z"/>
<path d="M1376 338 c-21 -30 -20 -54 4 -78 24 -24 53 -26 74 -4 19 18 21 75 4
92 -20 20 -65 14 -82 -10z m72 -29 c3 -30 -18 -52 -42 -43 -16 6 -23 54 -9 68
16 16 48 1 51 -25z"/>
<path d="M1480 301 c0 -34 4 -61 10 -61 6 0 10 9 10 20 0 27 24 25 43 -2 17
-26 34 -19 19 8 -7 12 -6 24 1 36 18 28 -3 52 -47 56 l-36 3 0 -60z m65 19 c0
-8 -10 -16 -22 -18 -18 -3 -23 2 -23 18 0 16 5 21 23 18 12 -2 22 -10 22 -18z"/>
<path d="M1587 353 c-18 -18 -5 -44 30 -58 28 -12 34 -18 25 -27 -10 -10 -17
-10 -32 0 -32 20 -46 14 -22 -10 18 -18 26 -20 49 -12 17 6 29 18 31 31 2 16
-5 24 -32 33 -48 16 -47 34 1 25 33 -6 35 -5 24 9 -13 16 -62 22 -74 9z"/>
</g>
</svg>
