<?xml version="1.0" standalone="no"?>
<!DOCTYPE svg PUBLIC "-//W3C//DTD SVG 20010904//EN"
 "http://www.w3.org/TR/2001/REC-SVG-20010904/DTD/svg10.dtd">
<svg version="1.0" xmlns="http://www.w3.org/2000/svg"
 width="86.000000pt" height="57.000000pt" viewBox="0 0 86.000000 57.000000"
 preserveAspectRatio="xMidYMid meet">
<metadata>
Created by potrace 1.10, written by Peter Selinger 2001-2011
</metadata>
<g transform="translate(0.000000,57.000000) scale(0.100000,-0.100000)"
fill="#000000" stroke="none">
<path d="M300 517 c-49 -16 -133 -102 -148 -153 -38 -130 13 -255 128 -314
134 -68 308 -3 359 136 34 90 23 167 -34 245 -47 66 -118 99 -204 98 -37 -1
-82 -6 -101 -12z m198 -41 c41 -21 90 -73 108 -113 8 -18 14 -56 14 -85 -1
-169 -173 -269 -328 -192 -134 67 -160 237 -52 344 28 29 61 51 86 58 50 14
133 8 172 -12z"/>
<path d="M325 365 c-22 -21 -25 -33 -25 -95 0 -78 19 -110 65 -110 27 0 123
52 143 78 32 41 3 82 -95 131 -53 27 -59 26 -88 -4z m103 -45 c28 -17 52 -37
52 -44 0 -29 -95 -84 -125 -72 -11 4 -15 21 -15 69 0 90 6 93 88 47z"/>
</g>
</svg>
