<svg width="24" height="24" viewBox="0 0 24 24" fill="none" xmlns="http://www.w3.org/2000/svg">
                        <path
                            d="M12 12.25C9.10614 12.25 6.75 9.89386 6.75 7C6.75 4.10614 9.10614 1.75 12 1.75C14.8939 1.75 17.25 4.10614 17.25 7C17.25 9.89386 14.8939 12.25 12 12.25ZM12 2.25C9.38386 2.25 7.25 4.38386 7.25 7C7.25 9.61614 9.38386 11.75 12 11.75C14.6161 11.75 16.75 9.61614 16.75 7C16.75 4.38386 14.6161 2.25 12 2.25Z"
                            fill="#FEFEFE" stroke="#FEFEFE" />
                        <path
                            d="M14.9346 21.1937L14.9352 21.1897L15.125 19.8407C15.1251 19.8406 15.1251 19.8404 15.1251 19.8403C15.159 19.604 15.3153 19.2908 15.4974 19.0997L19.0336 15.5636C19.6457 14.9515 20.1538 14.8727 20.5358 14.941C20.9568 15.0162 21.3332 15.2902 21.6065 15.5636C22.0634 16.0205 22.2501 16.4604 22.2501 16.85C22.2501 17.2474 22.0754 17.6575 21.6065 18.1264L18.0665 21.6665C17.8931 21.8399 17.5726 22.0002 17.3298 22.035C17.3296 22.035 17.3295 22.035 17.3294 22.0351L15.9804 22.2248L15.9543 22.2285L15.9288 22.2349C15.8815 22.2467 15.8526 22.25 15.8201 22.25C15.5619 22.25 15.3325 22.1553 15.1736 21.9964C14.9853 21.8081 14.8859 21.5209 14.9346 21.1937ZM21.591 16.3306C21.5047 16.1855 21.3872 16.0446 21.2498 15.9126C21.0039 15.6673 20.697 15.42 20.31 15.42C19.8966 15.42 19.5994 15.7035 19.3865 15.9165L15.8465 19.4564L16.2001 19.81L15.8465 19.4564C15.769 19.534 15.7193 19.6307 15.6983 19.6743C15.6834 19.7053 15.6674 19.7424 15.654 19.7826C15.6465 19.8052 15.6295 19.8577 15.6228 19.9248L15.4452 21.1587L15.3499 21.8201L16.0113 21.7249L17.2613 21.5449L17.2866 21.5412L17.3113 21.5351C17.3905 21.5153 17.4681 21.4776 17.5089 21.4564C17.5416 21.4395 17.638 21.3892 17.7136 21.3136L21.2536 17.7735C21.3454 17.6818 21.4572 17.5589 21.5495 17.4222C21.6308 17.3017 21.7501 17.0947 21.7501 16.85C21.7501 16.6505 21.6742 16.4704 21.591 16.3306Z"
                            fill="#FEFEFE" stroke="#FEFEFE" />
                        <path
                            d="M20.9201 19.22C20.8501 19.22 20.7801 19.21 20.7201 19.19C19.4001 18.82 18.3501 17.77 17.9801 16.45C17.8701 16.05 18.1001 15.64 18.5001 15.53C18.9001 15.42 19.3101 15.65 19.4201 16.05C19.6501 16.87 20.3001 17.52 21.1201 17.75C21.5201 17.86 21.7501 18.28 21.6401 18.67C21.5501 19 21.2501 19.22 20.9201 19.22Z"
                            fill="#FEFEFE" />
                        <path
                            d="M3.41016 22.75C3.00016 22.75 2.66016 22.41 2.66016 22C2.66016 17.73 6.85018 14.25 12.0002 14.25C13.0902 14.25 14.1702 14.41 15.1802 14.71C15.5802 14.83 15.8002 15.25 15.6802 15.64C15.5602 16.04 15.1402 16.26 14.7502 16.14C13.8702 15.88 12.9502 15.74 12.0002 15.74C7.68018 15.74 4.16016 18.54 4.16016 21.99C4.16016 22.41 3.82016 22.75 3.41016 22.75Z"
                            fill="#FEFEFE" />
                    </svg>