<?xml version="1.0" standalone="no"?>
<!DOCTYPE svg PUBLIC "-//W3C//DTD SVG 20010904//EN"
 "http://www.w3.org/TR/2001/REC-SVG-20010904/DTD/svg10.dtd">
<svg version="1.0" xmlns="http://www.w3.org/2000/svg"
 width="75.000000pt" height="67.000000pt" viewBox="0 0 75.000000 67.000000"
 preserveAspectRatio="xMidYMid meet">
<metadata>
Created by potrace 1.10, written by Peter Selinger 2001-2011
</metadata>
<g transform="translate(0.000000,67.000000) scale(0.100000,-0.100000)"
fill="#000000" stroke="none">
<path d="M195 655 c-53 -18 -92 -66 -106 -130 -17 -78 -8 -351 14 -391 46 -86
115 -108 332 -102 138 3 154 5 194 28 30 17 52 40 68 69 22 41 23 55 23 223 0
196 -6 222 -58 271 -16 16 -47 33 -68 38 -64 14 -353 10 -399 -6z m404 -43
c69 -35 76 -54 79 -242 3 -150 1 -173 -16 -212 -31 -70 -57 -78 -259 -78 -190
0 -222 9 -257 69 -17 30 -20 54 -20 195 -1 178 8 223 52 255 39 27 50 29 227
30 134 1 166 -2 194 -17z"/>
<path d="M274 557 c-3 -8 -4 -43 -2 -78 3 -56 5 -64 23 -64 18 0 20 7 20 75 0
63 -3 75 -18 78 -9 2 -20 -3 -23 -11z"/>
<path d="M490 540 c0 -23 -6 -33 -24 -40 -53 -20 -71 -86 -39 -140 53 -90 183
-47 183 60 0 27 -49 90 -71 90 -5 0 -9 14 -9 30 0 23 -4 30 -20 30 -16 0 -20
-7 -20 -30z m45 -76 c9 -4 21 -18 26 -32 22 -58 -60 -101 -95 -50 -21 30 -20
44 4 68 21 21 37 24 65 14z"/>
<path d="M226 365 c-37 -34 -37 -101 0 -139 15 -14 31 -26 35 -26 5 0 9 -13 9
-29 0 -31 21 -46 39 -28 6 6 11 21 11 32 0 14 10 26 26 33 36 17 58 74 44 117
-22 66 -112 88 -164 40z m108 -31 c20 -20 20 -58 0 -78 -34 -34 -94 -9 -94 39
0 30 25 55 55 55 13 0 31 -7 39 -16z"/>
<path d="M495 287 c-4 -8 -5 -45 -3 -83 2 -53 6 -69 18 -69 12 0 15 15 15 79
0 55 -4 81 -12 83 -7 3 -15 -2 -18 -10z"/>
</g>
</svg>
