<?xml version="1.0" standalone="no"?>
<!DOCTYPE svg PUBLIC "-//W3C//DTD SVG 20010904//EN"
 "http://www.w3.org/TR/2001/REC-SVG-20010904/DTD/svg10.dtd">
<svg version="1.0" xmlns="http://www.w3.org/2000/svg"
 width="75.000000pt" height="76.000000pt" viewBox="0 0 75.000000 76.000000"
 preserveAspectRatio="xMidYMid meet">
<metadata>
Created by potrace 1.10, written by Peter Selinger 2001-2011
</metadata>
<g transform="translate(0.000000,76.000000) scale(0.100000,-0.100000)"
fill="#000000" stroke="none">
<path d="M273 705 c-37 -16 -53 -42 -53 -84 0 -29 -3 -31 -35 -31 -48 0 -97
-22 -123 -55 -26 -33 -27 -71 -11 -262 12 -146 28 -188 79 -218 32 -18 52 -20
240 -20 296 0 295 -1 321 257 11 111 14 181 8 202 -16 57 -74 96 -145 96 -31
0 -34 2 -34 31 0 43 -16 69 -55 85 -43 18 -150 18 -192 -1z m185 -57 c7 -7 12
-22 12 -35 0 -22 -2 -23 -100 -23 -98 0 -100 1 -100 23 0 13 5 28 12 35 16 16
160 16 176 0z m134 -118 c42 -12 58 -34 58 -79 0 -28 -6 -34 -66 -64 -55 -26
-68 -29 -72 -17 -3 8 -19 29 -37 47 -70 70 -192 49 -243 -42 -10 -20 -12 -19
-78 13 l-66 33 5 41 c5 41 19 55 62 70 33 10 397 9 437 -2z m-149 -161 c30
-33 34 -66 12 -109 -55 -107 -220 -30 -174 81 17 42 65 71 104 63 17 -3 42
-19 58 -35z m194 -76 c-4 -38 -10 -87 -13 -110 -3 -23 -13 -52 -24 -65 -18
-22 -24 -23 -211 -26 -200 -3 -240 3 -259 39 -8 13 -29 163 -30 210 0 4 25 -4
56 -16 49 -20 59 -28 70 -62 18 -52 71 -99 123 -108 75 -13 171 57 171 124 0
15 9 25 29 32 21 7 91 42 97 48 0 1 -4 -29 -9 -66z"/>
<path d="M380 335 c-16 -17 -27 -22 -34 -15 -15 15 -43 12 -49 -4 -8 -19 30
-66 52 -66 30 0 104 72 96 93 -10 24 -38 21 -65 -8z"/>
</g>
</svg>
