<?xml version="1.0" standalone="no"?>
<!DOCTYPE svg PUBLIC "-//W3C//DTD SVG 20010904//EN"
 "http://www.w3.org/TR/2001/REC-SVG-20010904/DTD/svg10.dtd">
<svg version="1.0" xmlns="http://www.w3.org/2000/svg"
 width="83.000000pt" height="82.000000pt" viewBox="0 0 83.000000 82.000000"
 preserveAspectRatio="xMidYMid meet">
<metadata>
Created by potrace 1.10, written by Peter Selinger 2001-2011
</metadata>
<g transform="translate(0.000000,82.000000) scale(0.100000,-0.100000)"
fill="#000000" stroke="none">
<path d="M335 731 c-76 -35 -105 -85 -105 -182 0 -56 -1 -59 -24 -59 -35 0
-84 -45 -96 -88 -13 -48 -13 -203 1 -238 7 -21 7 -34 -2 -51 -11 -20 -10 -26
4 -40 16 -16 30 -4 214 178 l198 194 83 -5 c118 -7 125 -16 120 -167 -2 -92
-6 -116 -21 -130 -16 -16 -43 -18 -247 -21 l-230 -3 0 -25 0 -24 226 0 c251 0
274 5 309 63 17 27 20 51 20 147 0 168 -25 205 -146 216 l-64 6 108 106 c60
60 106 113 105 122 -7 33 -41 22 -94 -31 -35 -34 -54 -48 -54 -37 0 23 -54 65
-98 78 -59 16 -162 12 -207 -9z m175 -42 c48 -11 90 -43 90 -68 0 -8 -23 -39
-52 -68 l-52 -53 -110 0 -109 0 6 53 c9 91 34 123 107 138 51 10 70 10 120 -2z
m-205 -379 l-140 -140 -3 92 c-3 104 3 153 21 165 7 4 57 11 112 14 55 3 111
6 125 7 20 2 -2 -25 -115 -138z"/>
<path d="M483 344 c-3 -8 -1 -25 4 -37 23 -50 -36 -99 -76 -63 -23 21 -47 20
-56 -1 -10 -29 38 -63 88 -63 63 1 107 44 107 107 0 53 -51 97 -67 57z"/>
</g>
</svg>
