<svg width="19" height="19" viewBox="0 0 19 19" fill="none" xmlns="http://www.w3.org/2000/svg">
<path d="M0.478823 1.33368C0.173726 1.02858 0.173726 0.53392 0.478823 0.228823C0.78392 -0.0762743 1.27858 -0.0762743 1.58368 0.228823L9.625 8.27015L17.6663 0.228823C17.9714 -0.0762743 18.4661 -0.0762743 18.7712 0.228823C19.0763 0.53392 19.0763 1.02858 18.7712 1.33368L10.7299 9.375L18.7712 17.4163C19.0763 17.7214 19.0763 18.2161 18.7712 18.5212C18.4661 18.8263 17.9714 18.8263 17.6663 18.5212L9.625 10.4799L1.58368 18.5212C1.27858 18.8263 0.783921 18.8263 0.478824 18.5212C0.173727 18.2161 0.173727 17.7214 0.478824 17.4163L8.52015 9.375L0.478823 1.33368Z" fill="#292929"/>
</svg>
