<svg width="24" height="24" viewBox="0 0 24 24" fill="none" xmlns="http://www.w3.org/2000/svg">
<path d="M12 12.75C8.83 12.75 6.25 10.17 6.25 7C6.25 3.83 8.83 1.25 12 1.25C15.17 1.25 17.75 3.83 17.75 7C17.75 10.17 15.17 12.75 12 12.75ZM12 2.75C9.66 2.75 7.75 4.66 7.75 7C7.75 9.34 9.66 11.25 12 11.25C14.34 11.25 16.25 9.34 16.25 7C16.25 4.66 14.34 2.75 12 2.75Z" fill="#FEFEFE"/>
<path d="M14.8248 15.1313L14.8248 15.1314L14.8276 15.1321C14.9581 15.168 15.0357 15.3005 14.9981 15.4374C14.9622 15.5677 14.8303 15.6453 14.6936 15.6082C13.8264 15.3651 12.9212 15.25 12.0002 15.25C7.51602 15.25 3.66016 18.1738 3.66016 22C3.66016 22.1339 3.54401 22.25 3.41016 22.25C3.2763 22.25 3.16016 22.1339 3.16016 22C3.16016 18.0893 7.03505 14.75 12.0002 14.75C12.9669 14.75 13.9112 14.8744 14.8248 15.1313Z" stroke="#FEFEFE"/>
<path d="M19.4998 18.73H16.5098C16.0998 18.73 15.7598 18.39 15.7598 17.98C15.7598 17.57 16.0998 17.23 16.5098 17.23H19.4998C19.9098 17.23 20.2498 17.57 20.2498 17.98C20.2498 18.39 19.9098 18.73 19.4998 18.73Z" fill="#FEFEFE"/>
<path d="M18 20.26C17.59 20.26 17.25 19.92 17.25 19.51V16.52C17.25 16.11 17.59 15.77 18 15.77C18.41 15.77 18.75 16.11 18.75 16.52V19.51C18.75 19.93 18.41 20.26 18 20.26Z" fill="#FEFEFE"/>
</svg>
