<svg width="24" height="25" viewBox="0 0 24 25" fill="none"
                                xmlns="http://www.w3.org/2000/svg">
                                <path
                                    d="M18.0003 8.41002C17.9703 8.41002 17.9503 8.41002 17.9203 8.41002H17.8703C15.9803 8.35002 14.5703 6.89001 14.5703 5.09001C14.5703 3.25001 16.0703 1.76001 17.9003 1.76001C19.7303 1.76001 21.2303 3.26001 21.2303 5.09001C21.2203 6.90001 19.8103 8.36001 18.0103 8.42001C18.0103 8.41001 18.0103 8.41002 18.0003 8.41002ZM17.9003 3.25002C16.8903 3.25002 16.0703 4.07002 16.0703 5.08002C16.0703 6.07002 16.8403 6.87002 17.8303 6.91002C17.8403 6.90002 17.9203 6.90002 18.0103 6.91002C18.9803 6.86002 19.7303 6.06002 19.7403 5.08002C19.7403 4.07002 18.9203 3.25002 17.9003 3.25002Z"
                                    fill="#0855A2" />
                                <path
                                    d="M18.0105 15.78C17.6205 15.78 17.2305 15.75 16.8405 15.68C16.4305 15.61 16.1605 15.22 16.2305 14.81C16.3005 14.4 16.6905 14.13 17.1005 14.2C18.3305 14.41 19.6305 14.18 20.5005 13.6C20.9705 13.29 21.2205 12.9 21.2205 12.51C21.2205 12.12 20.9605 11.74 20.5005 11.43C19.6305 10.85 18.3105 10.62 17.0705 10.84C16.6605 10.92 16.2705 10.64 16.2005 10.23C16.1305 9.82002 16.4005 9.43003 16.8105 9.36003C18.4405 9.07003 20.1305 9.38002 21.3305 10.18C22.2105 10.77 22.7205 11.61 22.7205 12.51C22.7205 13.4 22.2205 14.25 21.3305 14.85C20.4205 15.45 19.2405 15.78 18.0105 15.78Z"
                                    fill="#0855A2" />
                                <path
                                    d="M5.97047 8.41C5.96047 8.41 5.95047 8.41 5.95047 8.41C4.15047 8.35 2.74047 6.89 2.73047 5.09C2.73047 3.25 4.23047 1.75 6.06047 1.75C7.89047 1.75 9.39047 3.25 9.39047 5.08C9.39047 6.89 7.98047 8.35 6.18047 8.41L5.97047 7.66L6.04047 8.41C6.02047 8.41 5.99047 8.41 5.97047 8.41ZM6.07047 6.91C6.13047 6.91 6.18047 6.91 6.24047 6.92C7.13047 6.88 7.91047 6.08 7.91047 5.09C7.91047 4.08 7.09047 3.25999 6.08047 3.25999C5.07047 3.25999 4.25047 4.08 4.25047 5.09C4.25047 6.07 5.01047 6.86 5.98047 6.92C5.99047 6.91 6.03047 6.91 6.07047 6.91Z"
                                    fill="#0855A2" />
                                <path
                                    d="M5.96 15.78C4.73 15.78 3.55 15.45 2.64 14.85C1.76 14.26 1.25 13.41 1.25 12.51C1.25 11.62 1.76 10.77 2.64 10.18C3.84 9.38002 5.53 9.07003 7.16 9.36003C7.57 9.43003 7.84 9.82002 7.77 10.23C7.7 10.64 7.31 10.92 6.9 10.84C5.66 10.62 4.35 10.85 3.47 11.43C3 11.74 2.75 12.12 2.75 12.51C2.75 12.9 3.01 13.29 3.47 13.6C4.34 14.18 5.64 14.41 6.87 14.2C7.28 14.13 7.67 14.41 7.74 14.81C7.81 15.22 7.54 15.61 7.13 15.68C6.74 15.75 6.35 15.78 5.96 15.78Z"
                                    fill="#0855A2" />
                                <path
                                    d="M12.0003 15.88C11.9703 15.88 11.9503 15.88 11.9203 15.88H11.8703C9.98031 15.82 8.57031 14.36 8.57031 12.56C8.57031 10.72 10.0703 9.22998 11.9003 9.22998C13.7303 9.22998 15.2303 10.73 15.2303 12.56C15.2203 14.37 13.8103 15.83 12.0103 15.89C12.0103 15.88 12.0103 15.88 12.0003 15.88ZM11.9003 10.72C10.8903 10.72 10.0703 11.54 10.0703 12.55C10.0703 13.54 10.8403 14.34 11.8303 14.38C11.8403 14.37 11.9203 14.37 12.0103 14.38C12.9803 14.33 13.7303 13.53 13.7403 12.55C13.7403 11.55 12.9203 10.72 11.9003 10.72Z"
                                    fill="#0855A2" />
                                <path
                                    d="M11.9993 23.26C10.7993 23.26 9.5993 22.95 8.6693 22.32C7.7893 21.73 7.2793 20.89 7.2793 19.99C7.2793 19.1 7.7793 18.24 8.6693 17.65C10.5393 16.41 13.4693 16.41 15.3293 17.65C16.2093 18.24 16.7193 19.08 16.7193 19.98C16.7193 20.87 16.2193 21.73 15.3293 22.32C14.3993 22.94 13.1993 23.26 11.9993 23.26ZM9.4993 18.91C9.0293 19.22 8.7793 19.61 8.7793 20C8.7793 20.39 9.0393 20.77 9.4993 21.08C10.8493 21.99 13.1393 21.99 14.4893 21.08C14.9593 20.77 15.2093 20.38 15.2093 19.99C15.2093 19.6 14.9493 19.22 14.4893 18.91C13.1493 18 10.8593 18.01 9.4993 18.91Z"
                                    fill="#0855A2" />
                            </svg>