<svg width="45" height="45" viewBox="0 0 45 45" fill="none" xmlns="http://www.w3.org/2000/svg">
<path d="M1.26967 1.47035C1.56228 1.177 1.90988 0.944262 2.29258 0.785461C2.67527 0.62666 3.08553 0.544922 3.49987 0.544922C3.9142 0.544922 4.32447 0.62666 4.70716 0.785461C5.08985 0.944262 5.43746 1.177 5.73007 1.47035L22.3999 18.1465L39.0697 1.47035C39.3625 1.17748 39.7102 0.945156 40.0929 0.786654C40.4756 0.628151 40.8857 0.546571 41.2999 0.546571C41.7141 0.546571 42.1242 0.628151 42.5068 0.786654C42.8895 0.945156 43.2372 1.17748 43.5301 1.47035C43.8229 1.76322 44.0553 2.11092 44.2138 2.49357C44.3723 2.87623 44.4538 3.28637 44.4538 3.70055C44.4538 4.11474 44.3723 4.52487 44.2138 4.90753C44.0553 5.29019 43.8229 5.63788 43.5301 5.93075L26.854 22.6006L43.5301 39.2704C43.8229 39.5632 44.0553 39.9109 44.2138 40.2936C44.3723 40.6762 44.4538 41.0864 44.4538 41.5006C44.4538 41.9147 44.3723 42.3249 44.2138 42.7075C44.0553 43.0902 43.8229 43.4379 43.5301 43.7308C43.2372 44.0236 42.8895 44.2559 42.5068 44.4145C42.1242 44.573 41.7141 44.6545 41.2999 44.6545C40.8857 44.6545 40.4756 44.573 40.0929 44.4145C39.7102 44.2559 39.3625 44.0236 39.0697 43.7308L22.3999 27.0547L5.73007 43.7308C5.43719 44.0236 5.0895 44.2559 4.70684 44.4145C4.32419 44.573 3.91405 44.6545 3.49987 44.6545C3.08568 44.6545 2.67555 44.573 2.29289 44.4145C1.91023 44.2559 1.56254 44.0236 1.26967 43.7308C0.976793 43.4379 0.744472 43.0902 0.58597 42.7075C0.427468 42.3249 0.345888 41.9147 0.345888 41.5006C0.345888 41.0864 0.427468 40.6762 0.58597 40.2936C0.744472 39.9109 0.976793 39.5632 1.26967 39.2704L17.9458 22.6006L1.26967 5.93075C0.976319 5.63814 0.743578 5.29054 0.584778 4.90784C0.425977 4.52515 0.344238 4.11489 0.344238 3.70055C0.344238 3.28622 0.425977 2.87595 0.584778 2.49326C0.743578 2.11056 0.976319 1.76296 1.26967 1.47035Z" fill="#FF4040"/>
</svg>

